<svg xmlns="http://www.w3.org/2000/svg" xmlns:xlink="http://www.w3.org/1999/xlink" width="128" zoomAndPan="magnify" viewBox="0 0 96 95.999999" height="128" preserveAspectRatio="xMidYMid meet" version="1.0"><defs><g/><clipPath id="2b996f174b"><path d="M 0.199219 29 L 50 29 L 50 54 L 0.199219 54 Z M 0.199219 29 " clip-rule="nonzero"/></clipPath><clipPath id="a4fcc526bd"><path d="M 23 0.914062 L 38 0.914062 L 38 17 L 23 17 Z M 23 0.914062 " clip-rule="nonzero"/></clipPath><clipPath id="9eef203292"><path d="M 0.398438 3 L 11 3 L 11 17 L 0.398438 17 Z M 0.398438 3 " clip-rule="nonzero"/></clipPath><clipPath id="0a03dd720f"><rect x="0" width="67" y="0" height="20"/></clipPath><clipPath id="9e6269371c"><path d="M 13 37 L 94.519531 37 L 94.519531 56.601562 L 13 56.601562 Z M 13 37 " clip-rule="nonzero"/></clipPath><clipPath id="390e45a4b8"><path d="M 0.398438 3 L 11 3 L 11 17 L 0.398438 17 Z M 0.398438 3 " clip-rule="nonzero"/></clipPath><clipPath id="a3be5bd9d1"><path d="M 73 3 L 81.519531 3 L 81.519531 17 L 73 17 Z M 73 3 " clip-rule="nonzero"/></clipPath><clipPath id="6dd0f055f8"><rect x="0" width="82" y="0" height="20"/></clipPath><clipPath id="130a9d6b9d"><rect x="0" width="95" y="0" height="57"/></clipPath><clipPath id="b420a47abb"><path d="M 22.199219 36.773438 L 41.699219 36.773438 L 41.699219 45.773438 L 22.199219 45.773438 Z M 22.199219 36.773438 " clip-rule="nonzero"/></clipPath></defs><g transform="matrix(1, 0, 0, 1, 1, 19)"><g clip-path="url(#130a9d6b9d)"><path fill="#3871c1" d="M 13.21875 42.039062 L 8.425781 34.730469 C 8.425781 34.730469 14.605469 26.71875 17.046875 11.996094 C 17.046875 11.996094 18.824219 12.351562 20.949219 9.578125 L 23.855469 21.605469 L 21.703125 38.699219 L 13.21875 42.039062 " fill-opacity="1" fill-rule="nonzero"/><path fill="#4fa9e3" d="M 40.324219 42.039062 L 48.066406 42.039062 C 47.363281 40.246094 46.714844 38.394531 46.121094 36.535156 C 44.367188 38.429688 42.425781 40.277344 40.324219 42.039062 " fill-opacity="1" fill-rule="nonzero"/><path fill="#4fa9e3" d="M 33.863281 33.941406 C 37.429688 31.296875 40.59375 28.324219 43.109375 25.308594 C 41.136719 16.554688 40.335938 9.578125 40.335938 9.578125 C 39.136719 10.085938 37.941406 10.457031 36.769531 10.730469 L 36.769531 15.964844 C 36.769531 16.3125 36.484375 16.59375 36.136719 16.59375 C 35.789062 16.59375 35.507812 16.3125 35.507812 15.964844 L 35.507812 10.988281 C 33.808594 11.289062 32.167969 11.394531 30.640625 11.394531 C 28.722656 11.394531 26.625 11.230469 24.457031 10.71875 L 24.457031 15.964844 C 24.457031 16.3125 24.171875 16.59375 23.824219 16.59375 C 23.476562 16.59375 23.191406 16.3125 23.191406 15.964844 L 23.191406 10.382812 C 22.449219 10.160156 21.699219 9.894531 20.949219 9.578125 C 20.949219 9.578125 18.878906 27.566406 13.21875 42.039062 L 17.792969 42.039062 C 22.859375 40.71875 28.609375 37.835938 33.863281 33.941406 " fill-opacity="1" fill-rule="nonzero"/><g clip-path="url(#2b996f174b)"><path fill="#f08114" d="M 37.875 40.671875 C 22.914062 51.761719 6.632812 55.144531 1.511719 48.234375 C 0.945312 47.46875 0.539062 46.609375 0.28125 45.671875 C 0.277344 47.546875 0.746094 49.203125 1.742188 50.550781 C 6.566406 57.058594 21.890625 53.871094 35.972656 43.433594 C 41.65625 39.222656 46.269531 34.472656 49.433594 29.878906 C 46.34375 33.589844 42.433594 37.292969 37.875 40.671875 " fill-opacity="1" fill-rule="nonzero"/></g><path fill="#f08114" d="M 55.894531 22.808594 C 56.226562 16.671875 54.996094 10.109375 54.996094 10.109375 C 54.996094 10.109375 50.75 14.6875 45.59375 17.445312 L 49.15625 18.980469 C 46.695312 24.246094 41.632812 30.175781 34.816406 35.230469 C 22.445312 44.394531 8.988281 47.195312 4.75 41.480469 C 2.285156 38.148438 3.496094 32.664062 7.382812 26.851562 C 1.835938 34.199219 -0.148438 41.355469 2.945312 45.535156 C 7.769531 52.039062 23.09375 48.855469 37.179688 38.417969 C 44.605469 32.914062 50.203125 26.492188 53.128906 20.695312 L 55.894531 22.808594 " fill-opacity="1" fill-rule="nonzero"/><g clip-path="url(#a4fcc526bd)"><path fill="#3871c1" d="M 25.117188 16.039062 L 25.117188 7.824219 C 25.117188 4.777344 27.554688 2.25 30.601562 2.226562 C 33.671875 2.207031 36.167969 4.6875 36.167969 7.753906 L 36.167969 16.039062 C 36.167969 16.390625 36.449219 16.671875 36.796875 16.671875 C 37.148438 16.671875 37.429688 16.390625 37.429688 16.039062 L 37.429688 7.839844 C 37.429688 4.101562 34.445312 1 30.707031 0.964844 C 26.9375 0.929688 23.855469 3.988281 23.855469 7.753906 L 23.855469 16.039062 C 23.855469 16.390625 24.136719 16.671875 24.484375 16.671875 C 24.835938 16.671875 25.117188 16.390625 25.117188 16.039062 " fill-opacity="1" fill-rule="nonzero"/></g><g transform="matrix(1, 0, 0, 1, 13, 24)"><g clip-path="url(#0a03dd720f)"><g clip-path="url(#9eef203292)"><g fill="#ffffff" fill-opacity="1"><g transform="translate(0.812889, 15.756279)"><g><path d="M 5.644531 -12.542969 C 6.539062 -12.542969 7.332031 -12.417969 8.023438 -12.160156 C 8.421875 -12.015625 8.730469 -11.832031 8.949219 -11.609375 C 9.230469 -11.332031 9.367188 -11.007812 9.367188 -10.636719 C 9.367188 -10.144531 9.195312 -9.5625 8.851562 -8.894531 C 8.683594 -8.5625 8.519531 -8.304688 8.359375 -8.121094 C 8.109375 -7.832031 7.839844 -7.6875 7.546875 -7.6875 C 7.335938 -7.6875 7.136719 -7.769531 6.945312 -7.929688 C 6.960938 -7.917969 6.972656 -7.90625 6.980469 -7.902344 C 6.972656 -7.90625 6.957031 -7.914062 6.9375 -7.921875 C 6.875 -7.945312 6.789062 -7.976562 6.679688 -8.003906 C 6.472656 -8.0625 6.300781 -8.089844 6.167969 -8.089844 C 5.710938 -8.089844 5.34375 -7.933594 5.074219 -7.621094 C 4.777344 -7.277344 4.628906 -6.714844 4.628906 -5.921875 C 4.628906 -5.136719 4.78125 -4.574219 5.082031 -4.234375 C 5.367188 -3.914062 5.726562 -3.753906 6.167969 -3.753906 C 6.378906 -3.753906 6.621094 -3.785156 6.890625 -3.847656 C 7.011719 -3.875 7.105469 -3.90625 7.179688 -3.941406 C 7.226562 -3.960938 7.253906 -3.976562 7.269531 -3.992188 C 7.414062 -4.136719 7.605469 -4.210938 7.847656 -4.210938 C 8.054688 -4.210938 8.253906 -4.117188 8.4375 -3.929688 C 8.523438 -3.84375 8.621094 -3.726562 8.734375 -3.574219 C 8.953125 -3.277344 9.148438 -2.898438 9.328125 -2.433594 C 9.511719 -1.953125 9.605469 -1.5625 9.605469 -1.261719 C 9.605469 -0.871094 9.460938 -0.53125 9.175781 -0.234375 C 8.941406 0.0078125 8.613281 0.207031 8.191406 0.371094 C 7.445312 0.65625 6.574219 0.796875 5.578125 0.796875 C 3.914062 0.796875 2.542969 0.207031 1.46875 -0.96875 C 0.40625 -2.132812 -0.125 -3.742188 -0.125 -5.804688 C -0.125 -7.867188 0.417969 -9.5 1.507812 -10.707031 C 2.613281 -11.933594 3.992188 -12.542969 5.644531 -12.542969 Z M 5.644531 -11.285156 C 4.367188 -11.285156 3.296875 -10.808594 2.441406 -9.863281 C 1.570312 -8.894531 1.132812 -7.542969 1.132812 -5.804688 C 1.132812 -4.070312 1.554688 -2.742188 2.398438 -1.820312 C 3.226562 -0.914062 4.285156 -0.460938 5.578125 -0.460938 C 6.421875 -0.460938 7.140625 -0.578125 7.738281 -0.808594 C 7.988281 -0.902344 8.164062 -1.003906 8.269531 -1.109375 C 8.320312 -1.160156 8.34375 -1.210938 8.34375 -1.261719 C 8.34375 -1.40625 8.277344 -1.648438 8.148438 -1.984375 C 8.011719 -2.339844 7.871094 -2.621094 7.71875 -2.828125 C 7.644531 -2.929688 7.585938 -3 7.546875 -3.039062 C 7.542969 -3.042969 7.542969 -3.046875 7.539062 -3.046875 C 7.546875 -3.039062 7.554688 -3.035156 7.566406 -3.027344 C 7.644531 -2.976562 7.738281 -2.949219 7.847656 -2.949219 C 7.867188 -2.949219 7.890625 -2.953125 7.917969 -2.960938 C 8.007812 -2.980469 8.085938 -3.027344 8.160156 -3.101562 C 7.9375 -2.878906 7.609375 -2.71875 7.171875 -2.621094 C 6.808594 -2.535156 6.472656 -2.496094 6.167969 -2.496094 C 5.351562 -2.496094 4.675781 -2.796875 4.140625 -3.394531 C 3.625 -3.972656 3.371094 -4.816406 3.371094 -5.921875 C 3.371094 -7.027344 3.621094 -7.867188 4.121094 -8.445312 C 4.644531 -9.050781 5.324219 -9.351562 6.167969 -9.351562 C 6.414062 -9.351562 6.699219 -9.308594 7.015625 -9.21875 C 7.367188 -9.121094 7.617188 -9.011719 7.757812 -8.890625 C 7.753906 -8.894531 7.742188 -8.902344 7.726562 -8.910156 C 7.671875 -8.9375 7.613281 -8.949219 7.546875 -8.949219 C 7.472656 -8.949219 7.414062 -8.933594 7.367188 -8.902344 C 7.371094 -8.90625 7.382812 -8.921875 7.40625 -8.945312 C 7.5 -9.054688 7.605469 -9.226562 7.734375 -9.472656 C 7.984375 -9.957031 8.109375 -10.347656 8.109375 -10.636719 C 8.109375 -10.660156 8.09375 -10.6875 8.058594 -10.71875 C 7.96875 -10.808594 7.8125 -10.894531 7.585938 -10.980469 C 7.035156 -11.183594 6.390625 -11.285156 5.644531 -11.285156 Z M 5.644531 -11.285156 "/></g></g></g></g><g fill="#ffffff" fill-opacity="1"><g transform="translate(10.239895, 15.756279)"><g><path d="M 8.738281 0.664062 C 8.191406 0.664062 7.753906 0.617188 7.433594 0.519531 C 6.941406 0.375 6.644531 0.105469 6.546875 -0.285156 L 5.992188 -2.449219 L 6.605469 -2.605469 L 6.605469 -1.972656 L 3.933594 -1.972656 L 3.933594 -2.605469 L 4.546875 -2.460938 L 4.058594 -0.378906 L 3.445312 -0.519531 L 4.0625 -0.402344 C 4.019531 -0.171875 3.902344 0.0234375 3.71875 0.183594 C 3.578125 0.304688 3.398438 0.398438 3.183594 0.46875 C 2.851562 0.578125 2.402344 0.628906 1.832031 0.628906 C 1.246094 0.628906 0.796875 0.59375 0.492188 0.519531 C 0.339844 0.484375 0.21875 0.449219 0.128906 0.417969 C -0.207031 0.292969 -0.378906 0.0742188 -0.378906 -0.234375 L -0.378906 -0.316406 L 2.617188 -11.769531 L 3.226562 -11.613281 L 2.597656 -11.613281 C 2.597656 -11.988281 2.816406 -12.214844 3.261719 -12.292969 C 3.382812 -12.3125 3.550781 -12.328125 3.765625 -12.34375 C 4.160156 -12.363281 4.75 -12.375 5.527344 -12.375 C 6.308594 -12.375 6.894531 -12.363281 7.292969 -12.34375 C 7.507812 -12.328125 7.675781 -12.3125 7.796875 -12.292969 C 8.238281 -12.214844 8.460938 -11.988281 8.460938 -11.613281 L 7.832031 -11.613281 L 8.441406 -11.769531 L 11.367188 -0.296875 L 11.367188 -0.21875 C 11.367188 0.152344 11.144531 0.390625 10.691406 0.5 C 10.53125 0.539062 10.308594 0.570312 10.019531 0.59375 C 9.484375 0.640625 9.058594 0.664062 8.738281 0.664062 Z M 8.738281 -0.597656 C 9.023438 -0.597656 9.414062 -0.617188 9.910156 -0.660156 C 10.136719 -0.679688 10.300781 -0.703125 10.398438 -0.726562 C 10.410156 -0.730469 10.421875 -0.730469 10.425781 -0.734375 C 10.417969 -0.730469 10.402344 -0.726562 10.390625 -0.714844 C 10.339844 -0.6875 10.292969 -0.652344 10.25 -0.601562 C 10.15625 -0.492188 10.109375 -0.367188 10.109375 -0.21875 L 10.738281 -0.21875 L 10.128906 -0.0625 L 7.199219 -11.53125 L 7.199219 -11.613281 C 7.199219 -11.425781 7.269531 -11.273438 7.40625 -11.152344 C 7.453125 -11.113281 7.503906 -11.082031 7.554688 -11.058594 C 7.570312 -11.054688 7.585938 -11.050781 7.59375 -11.046875 C 7.59375 -11.046875 7.585938 -11.046875 7.578125 -11.050781 C 7.507812 -11.0625 7.386719 -11.074219 7.21875 -11.082031 C 6.847656 -11.105469 6.285156 -11.117188 5.527344 -11.117188 C 4.773438 -11.117188 4.210938 -11.105469 3.839844 -11.082031 C 3.671875 -11.074219 3.550781 -11.0625 3.480469 -11.050781 C 3.46875 -11.046875 3.464844 -11.046875 3.460938 -11.046875 C 3.472656 -11.050781 3.484375 -11.054688 3.5 -11.058594 C 3.554688 -11.082031 3.605469 -11.113281 3.652344 -11.152344 C 3.789062 -11.273438 3.855469 -11.425781 3.855469 -11.613281 L 3.855469 -11.53125 L 0.863281 -0.0742188 L 0.253906 -0.234375 L 0.882812 -0.234375 C 0.882812 -0.386719 0.832031 -0.519531 0.734375 -0.636719 C 0.699219 -0.675781 0.65625 -0.710938 0.613281 -0.742188 C 0.589844 -0.753906 0.578125 -0.761719 0.566406 -0.765625 C 0.609375 -0.75 0.679688 -0.730469 0.785156 -0.707031 C 0.996094 -0.65625 1.34375 -0.628906 1.832031 -0.628906 C 2.269531 -0.628906 2.589844 -0.664062 2.796875 -0.730469 C 2.851562 -0.746094 2.882812 -0.761719 2.894531 -0.769531 C 2.859375 -0.742188 2.835938 -0.695312 2.828125 -0.640625 L 2.828125 -0.652344 L 3.433594 -3.234375 L 7.09375 -3.234375 L 7.769531 -0.589844 C 7.753906 -0.652344 7.726562 -0.699219 7.6875 -0.730469 C 7.703125 -0.71875 7.738281 -0.703125 7.792969 -0.6875 C 7.996094 -0.628906 8.3125 -0.597656 8.738281 -0.597656 Z M 4.351562 -5.367188 L 6.117188 -5.367188 L 6.117188 -4.738281 L 5.5 -4.605469 L 4.746094 -8.082031 L 5.359375 -8.21875 L 5.359375 -7.585938 L 5.261719 -7.585938 L 5.261719 -8.21875 L 5.871094 -8.058594 L 4.960938 -4.578125 L 4.351562 -4.738281 Z M 3.535156 -4.109375 L 4.773438 -8.847656 L 5.867188 -8.847656 L 6.898438 -4.109375 Z M 3.535156 -4.109375 "/></g></g></g><g fill="#ffffff" fill-opacity="1"><g transform="translate(21.246476, 15.756279)"><g><path d="M 12.601562 0.648438 C 12.058594 0.648438 11.636719 0.613281 11.34375 0.546875 C 11.140625 0.503906 10.976562 0.4375 10.847656 0.351562 C 10.746094 0.28125 10.660156 0.195312 10.597656 0.0976562 C 10.519531 -0.03125 10.476562 -0.167969 10.476562 -0.320312 L 11.109375 -0.320312 L 10.476562 -0.285156 L 10.125 -7.023438 L 10.753906 -7.058594 L 11.359375 -6.875 L 9.304688 -0.0429688 L 9.300781 -0.0351562 C 9.199219 0.269531 8.933594 0.460938 8.496094 0.535156 C 8.269531 0.578125 7.957031 0.597656 7.5625 0.597656 C 7.167969 0.597656 6.863281 0.578125 6.644531 0.542969 C 6.167969 0.460938 5.898438 0.246094 5.832031 -0.105469 L 6.453125 -0.21875 L 5.851562 -0.0351562 L 3.734375 -6.941406 L 4.335938 -7.125 L 4.964844 -7.101562 L 4.730469 -0.386719 L 4.730469 -0.378906 C 4.695312 0.128906 4.304688 0.4375 3.554688 0.546875 C 3.109375 0.613281 2.734375 0.648438 2.429688 0.648438 C 2.125 0.648438 1.832031 0.628906 1.546875 0.589844 C 0.625 0.457031 0.179688 0.0976562 0.210938 -0.488281 L 0.597656 -11.398438 L 1.226562 -11.375 L 0.597656 -11.375 C 0.597656 -11.855469 0.9375 -12.164062 1.617188 -12.296875 C 2 -12.371094 2.550781 -12.410156 3.277344 -12.410156 C 3.703125 -12.410156 4.21875 -12.378906 4.820312 -12.3125 C 5.164062 -12.277344 5.445312 -12.21875 5.65625 -12.140625 C 5.996094 -12.015625 6.21875 -11.816406 6.320312 -11.546875 L 8.207031 -6.242188 L 7.613281 -6.03125 L 7.011719 -6.21875 L 8.660156 -11.539062 L 8.664062 -11.550781 C 8.746094 -11.785156 8.917969 -11.964844 9.179688 -12.097656 C 9.339844 -12.179688 9.546875 -12.242188 9.796875 -12.289062 C 10.222656 -12.371094 10.816406 -12.410156 11.578125 -12.410156 C 12.015625 -12.410156 12.535156 -12.378906 13.132812 -12.3125 C 13.476562 -12.277344 13.742188 -12.222656 13.9375 -12.148438 C 14.085938 -12.09375 14.207031 -12.019531 14.304688 -11.933594 C 14.476562 -11.773438 14.5625 -11.582031 14.5625 -11.359375 L 13.929688 -11.359375 L 14.5625 -11.386719 L 15.046875 -0.351562 L 15.046875 -0.335938 C 15.046875 -0.128906 14.972656 0.0507812 14.816406 0.203125 C 14.730469 0.285156 14.625 0.351562 14.492188 0.40625 C 14.332031 0.472656 14.117188 0.523438 13.84375 0.558594 C 13.378906 0.617188 12.964844 0.648438 12.601562 0.648438 Z M 12.601562 -0.613281 C 12.914062 -0.613281 13.273438 -0.640625 13.683594 -0.691406 C 13.847656 -0.714844 13.957031 -0.734375 14.015625 -0.757812 C 13.996094 -0.75 13.96875 -0.730469 13.9375 -0.703125 C 13.839844 -0.605469 13.789062 -0.484375 13.789062 -0.335938 L 14.417969 -0.335938 L 13.789062 -0.308594 L 13.300781 -11.347656 L 13.300781 -11.359375 C 13.300781 -11.214844 13.351562 -11.097656 13.449219 -11.003906 C 13.46875 -10.988281 13.484375 -10.976562 13.5 -10.964844 L 13.503906 -10.964844 C 13.5 -10.964844 13.496094 -10.96875 13.492188 -10.96875 C 13.398438 -11.003906 13.234375 -11.035156 13 -11.0625 C 12.445312 -11.121094 11.96875 -11.148438 11.578125 -11.148438 C 10.894531 -11.148438 10.378906 -11.117188 10.03125 -11.050781 C 9.894531 -11.027344 9.800781 -11 9.742188 -10.96875 C 9.742188 -10.96875 9.738281 -10.96875 9.738281 -10.96875 C 9.746094 -10.972656 9.753906 -10.980469 9.761719 -10.988281 C 9.804688 -11.027344 9.832031 -11.078125 9.855469 -11.136719 L 9.257812 -11.34375 L 9.859375 -11.15625 L 7.652344 -4.035156 L 5.140625 -11.105469 C 5.164062 -11.035156 5.203125 -10.984375 5.25 -10.949219 C 5.253906 -10.945312 5.253906 -10.945312 5.257812 -10.941406 C 5.257812 -10.941406 5.257812 -10.941406 5.253906 -10.945312 C 5.246094 -10.949219 5.234375 -10.953125 5.21875 -10.960938 C 5.105469 -11.003906 4.929688 -11.035156 4.6875 -11.0625 C 4.128906 -11.121094 3.65625 -11.148438 3.277344 -11.148438 C 2.632812 -11.148438 2.164062 -11.121094 1.859375 -11.0625 C 1.761719 -11.042969 1.699219 -11.023438 1.675781 -11.011719 C 1.707031 -11.03125 1.738281 -11.058594 1.769531 -11.101562 C 1.828125 -11.183594 1.855469 -11.273438 1.855469 -11.375 L 1.855469 -11.367188 L 1.46875 -0.417969 C 1.476562 -0.519531 1.449219 -0.609375 1.390625 -0.6875 C 1.367188 -0.722656 1.34375 -0.742188 1.324219 -0.753906 C 1.390625 -0.71875 1.519531 -0.6875 1.710938 -0.660156 C 1.941406 -0.628906 2.179688 -0.613281 2.429688 -0.613281 C 2.671875 -0.613281 2.984375 -0.640625 3.367188 -0.699219 C 3.503906 -0.71875 3.589844 -0.738281 3.632812 -0.761719 C 3.609375 -0.75 3.585938 -0.726562 3.558594 -0.695312 C 3.507812 -0.628906 3.476562 -0.550781 3.472656 -0.460938 L 4.101562 -0.421875 L 3.46875 -0.441406 L 3.707031 -7.148438 L 4.9375 -7.308594 L 7.066406 -0.367188 L 7.074219 -0.332031 C 7.050781 -0.445312 7 -0.542969 6.921875 -0.625 C 6.882812 -0.660156 6.84375 -0.6875 6.804688 -0.707031 C 6.796875 -0.710938 6.789062 -0.714844 6.785156 -0.714844 C 6.785156 -0.714844 6.789062 -0.714844 6.789062 -0.714844 C 6.804688 -0.710938 6.824219 -0.707031 6.851562 -0.703125 C 7 -0.675781 7.238281 -0.664062 7.5625 -0.664062 C 7.882812 -0.664062 8.121094 -0.675781 8.277344 -0.703125 C 8.300781 -0.710938 8.324219 -0.714844 8.339844 -0.71875 L 8.339844 -0.714844 C 8.308594 -0.703125 8.277344 -0.679688 8.246094 -0.652344 C 8.183594 -0.59375 8.136719 -0.519531 8.105469 -0.433594 L 8.703125 -0.234375 L 8.101562 -0.417969 L 10.152344 -7.238281 L 11.382812 -7.089844 L 11.738281 -0.335938 L 11.738281 -0.320312 C 11.738281 -0.414062 11.714844 -0.5 11.664062 -0.578125 C 11.632812 -0.628906 11.59375 -0.667969 11.554688 -0.695312 C 11.546875 -0.699219 11.539062 -0.703125 11.53125 -0.707031 C 11.535156 -0.707031 11.535156 -0.707031 11.539062 -0.703125 C 11.558594 -0.699219 11.585938 -0.691406 11.621094 -0.683594 C 11.824219 -0.636719 12.152344 -0.613281 12.601562 -0.613281 Z M 12.601562 -0.613281 "/></g></g></g><g fill="#ffffff" fill-opacity="1"><g transform="translate(36.487646, 15.756279)"><g><path d="M 2.300781 0.664062 C 1.746094 0.664062 1.320312 0.632812 1.019531 0.566406 C 0.816406 0.519531 0.652344 0.457031 0.523438 0.371094 C 0.417969 0.300781 0.332031 0.21875 0.269531 0.121094 C 0.183594 -0.0078125 0.144531 -0.148438 0.144531 -0.300781 L 0.144531 -11.191406 C 0.144531 -11.546875 0.242188 -11.828125 0.4375 -12.046875 C 0.648438 -12.277344 0.933594 -12.394531 1.292969 -12.394531 L 4.25 -12.394531 C 6.074219 -12.394531 7.414062 -11.996094 8.269531 -11.199219 C 9.136719 -10.390625 9.570312 -9.246094 9.570312 -7.765625 C 9.570312 -6.542969 9.179688 -5.429688 8.394531 -4.421875 C 7.980469 -3.882812 7.382812 -3.457031 6.601562 -3.144531 C 5.855469 -2.847656 4.992188 -2.695312 4.015625 -2.695312 L 4.015625 -3.328125 L 4.648438 -3.328125 L 4.648438 -0.320312 C 4.648438 -0.121094 4.578125 0.0507812 4.4375 0.203125 C 4.355469 0.292969 4.246094 0.371094 4.113281 0.425781 C 3.949219 0.5 3.734375 0.550781 3.460938 0.582031 C 3.015625 0.636719 2.628906 0.664062 2.300781 0.664062 Z M 2.300781 -0.597656 C 2.578125 -0.597656 2.914062 -0.621094 3.3125 -0.667969 C 3.460938 -0.683594 3.558594 -0.703125 3.605469 -0.726562 C 3.578125 -0.714844 3.546875 -0.691406 3.515625 -0.65625 C 3.429688 -0.5625 3.386719 -0.449219 3.386719 -0.320312 L 3.386719 -3.957031 L 4.015625 -3.957031 C 4.832031 -3.957031 5.539062 -4.078125 6.136719 -4.316406 C 6.699219 -4.542969 7.121094 -4.835938 7.398438 -5.191406 C 8.007812 -5.976562 8.308594 -6.832031 8.308594 -7.765625 C 8.308594 -8.878906 8.011719 -9.71875 7.410156 -10.277344 C 6.796875 -10.847656 5.746094 -11.132812 4.25 -11.132812 L 1.292969 -11.132812 C 1.285156 -11.132812 1.273438 -11.132812 1.269531 -11.132812 C 1.273438 -11.132812 1.277344 -11.132812 1.28125 -11.136719 C 1.3125 -11.148438 1.34375 -11.167969 1.367188 -11.195312 C 1.390625 -11.21875 1.402344 -11.238281 1.410156 -11.257812 C 1.40625 -11.246094 1.402344 -11.226562 1.402344 -11.191406 L 1.402344 -0.300781 C 1.402344 -0.398438 1.378906 -0.488281 1.324219 -0.566406 C 1.292969 -0.617188 1.257812 -0.65625 1.214844 -0.679688 C 1.207031 -0.6875 1.203125 -0.691406 1.195312 -0.691406 C 1.199219 -0.691406 1.199219 -0.691406 1.203125 -0.6875 C 1.226562 -0.683594 1.253906 -0.675781 1.289062 -0.664062 C 1.5 -0.621094 1.839844 -0.597656 2.300781 -0.597656 Z M 4.648438 -8.839844 L 4.648438 -6.183594 L 4.015625 -6.183594 L 4.015625 -6.8125 L 4.234375 -6.8125 C 4.464844 -6.8125 4.652344 -6.882812 4.800781 -7.019531 C 4.933594 -7.140625 5 -7.332031 5 -7.59375 C 5 -7.761719 4.984375 -7.894531 4.953125 -7.996094 C 4.9375 -8.054688 4.917969 -8.09375 4.898438 -8.113281 C 4.886719 -8.128906 4.847656 -8.144531 4.792969 -8.164062 C 4.6875 -8.195312 4.542969 -8.210938 4.371094 -8.210938 L 4.015625 -8.210938 L 4.015625 -8.839844 Z M 3.386719 -9.46875 L 4.371094 -9.46875 C 5.015625 -9.46875 5.496094 -9.308594 5.804688 -8.992188 C 6.109375 -8.679688 6.257812 -8.214844 6.257812 -7.59375 C 6.257812 -6.960938 6.058594 -6.460938 5.652344 -6.089844 C 5.261719 -5.730469 4.789062 -5.554688 4.234375 -5.554688 L 3.386719 -5.554688 Z M 3.386719 -9.46875 "/></g></g></g><g fill="#ffffff" fill-opacity="1"><g transform="translate(46.065892, 15.756279)"><g><path d="M 5.707031 -11.425781 C 5.707031 -11.890625 6.027344 -12.179688 6.675781 -12.300781 C 7.019531 -12.363281 7.511719 -12.394531 8.160156 -12.394531 C 8.804688 -12.394531 9.296875 -12.363281 9.640625 -12.300781 C 10.289062 -12.179688 10.613281 -11.890625 10.613281 -11.425781 L 10.613281 -3.714844 C 10.613281 -2.382812 10.132812 -1.292969 9.171875 -0.445312 C 8.234375 0.382812 6.96875 0.796875 5.367188 0.796875 C 3.777344 0.796875 2.472656 0.378906 1.457031 -0.464844 C 0.402344 -1.335938 -0.125 -2.503906 -0.125 -3.964844 L -0.125 -11.410156 C -0.125 -11.871094 0.199219 -12.164062 0.847656 -12.28125 C 1.1875 -12.34375 1.679688 -12.375 2.328125 -12.375 C 2.972656 -12.375 3.46875 -12.34375 3.808594 -12.28125 C 4.457031 -12.164062 4.78125 -11.871094 4.78125 -11.410156 L 4.78125 -3.832031 C 4.78125 -3.84375 4.777344 -3.859375 4.765625 -3.875 L 4.769531 -3.875 C 4.78125 -3.863281 4.796875 -3.851562 4.816406 -3.839844 C 4.960938 -3.761719 5.113281 -3.722656 5.277344 -3.722656 C 5.433594 -3.722656 5.574219 -3.757812 5.699219 -3.824219 C 5.707031 -3.832031 5.714844 -3.835938 5.71875 -3.839844 C 5.714844 -3.835938 5.714844 -3.832031 5.710938 -3.828125 C 5.707031 -3.824219 5.707031 -3.816406 5.703125 -3.8125 C 5.703125 -3.816406 5.707031 -3.820312 5.707031 -3.832031 Z M 6.964844 -11.425781 L 6.964844 -3.832031 C 6.964844 -3.59375 6.910156 -3.378906 6.796875 -3.1875 C 6.683594 -2.996094 6.523438 -2.84375 6.316406 -2.726562 C 6.003906 -2.550781 5.65625 -2.460938 5.277344 -2.460938 C 4.902344 -2.460938 4.539062 -2.558594 4.191406 -2.746094 C 3.984375 -2.863281 3.828125 -3.007812 3.710938 -3.183594 C 3.585938 -3.378906 3.519531 -3.59375 3.519531 -3.832031 L 3.519531 -11.410156 C 3.519531 -11.292969 3.554688 -11.191406 3.625 -11.101562 C 3.65625 -11.058594 3.695312 -11.027344 3.730469 -11.003906 C 3.714844 -11.015625 3.664062 -11.027344 3.582031 -11.042969 C 3.316406 -11.089844 2.898438 -11.117188 2.328125 -11.117188 C 1.757812 -11.117188 1.339844 -11.089844 1.074219 -11.042969 C 0.988281 -11.027344 0.9375 -11.015625 0.921875 -11.003906 C 0.960938 -11.027344 0.996094 -11.058594 1.03125 -11.101562 C 1.101562 -11.191406 1.132812 -11.292969 1.132812 -11.410156 L 1.132812 -3.964844 C 1.132812 -2.898438 1.507812 -2.054688 2.257812 -1.433594 C 3.042969 -0.785156 4.082031 -0.460938 5.367188 -0.460938 C 6.648438 -0.460938 7.640625 -0.769531 8.339844 -1.386719 C 9.015625 -1.984375 9.351562 -2.761719 9.351562 -3.714844 L 9.351562 -11.425781 C 9.351562 -11.3125 9.386719 -11.207031 9.457031 -11.121094 C 9.488281 -11.074219 9.523438 -11.042969 9.5625 -11.023438 C 9.546875 -11.03125 9.496094 -11.042969 9.410156 -11.058594 C 9.144531 -11.109375 8.726562 -11.132812 8.160156 -11.132812 C 7.589844 -11.132812 7.171875 -11.109375 6.90625 -11.058594 C 6.820312 -11.042969 6.769531 -11.03125 6.753906 -11.023438 C 6.792969 -11.042969 6.828125 -11.074219 6.863281 -11.121094 C 6.929688 -11.207031 6.964844 -11.3125 6.964844 -11.425781 Z M 6.964844 -11.425781 "/></g></g></g><g fill="#ffffff" fill-opacity="1"><g transform="translate(56.618763, 15.756279)"><g><path d="M 1.667969 -4.59375 C 1.855469 -4.449219 2.195312 -4.238281 2.683594 -3.960938 C 3.109375 -3.722656 3.507812 -3.605469 3.875 -3.605469 C 3.9375 -3.605469 3.992188 -3.609375 4.027344 -3.621094 C 4.035156 -3.621094 4.039062 -3.621094 4.042969 -3.625 C 4.035156 -3.621094 4.03125 -3.617188 4.023438 -3.609375 C 3.996094 -3.589844 3.976562 -3.566406 3.964844 -3.535156 C 3.960938 -3.527344 3.957031 -3.519531 3.957031 -3.511719 C 3.957031 -3.515625 3.957031 -3.519531 3.957031 -3.527344 C 3.957031 -3.523438 3.960938 -3.515625 3.964844 -3.507812 C 3.964844 -3.503906 3.964844 -3.503906 3.964844 -3.503906 C 3.960938 -3.507812 3.957031 -3.511719 3.949219 -3.519531 C 3.867188 -3.601562 3.675781 -3.710938 3.378906 -3.847656 C 3.011719 -4.019531 2.734375 -4.15625 2.542969 -4.257812 C 2.339844 -4.367188 2.074219 -4.539062 1.753906 -4.777344 C 1.394531 -5.039062 1.117188 -5.320312 0.921875 -5.617188 L 1.445312 -5.964844 L 0.929688 -5.605469 C 0.40625 -6.351562 0.144531 -7.285156 0.144531 -8.402344 C 0.144531 -9.570312 0.578125 -10.558594 1.445312 -11.359375 C 2.300781 -12.148438 3.402344 -12.542969 4.753906 -12.542969 C 5.613281 -12.542969 6.410156 -12.453125 7.144531 -12.265625 C 7.554688 -12.160156 7.875 -12.035156 8.109375 -11.882812 C 8.460938 -11.65625 8.648438 -11.371094 8.675781 -11.023438 L 8.679688 -11 L 8.679688 -10.871094 C 8.679688 -10.398438 8.539062 -9.820312 8.261719 -9.144531 C 8.132812 -8.828125 8.019531 -8.578125 7.921875 -8.394531 C 7.785156 -8.132812 7.648438 -7.953125 7.507812 -7.859375 L 7.199219 -7.65625 L 6.871094 -7.824219 C 6.242188 -8.148438 5.699219 -8.308594 5.234375 -8.308594 C 5.140625 -8.308594 5.066406 -8.304688 5.007812 -8.289062 C 4.992188 -8.285156 4.976562 -8.28125 4.964844 -8.277344 C 4.984375 -8.289062 5 -8.308594 5.011719 -8.332031 C 5.011719 -8.339844 5.015625 -8.347656 5.015625 -8.351562 C 5.015625 -8.351562 5.015625 -8.34375 5.015625 -8.335938 C 5.015625 -8.363281 5.011719 -8.386719 5 -8.410156 C 4.996094 -8.417969 4.996094 -8.421875 4.992188 -8.425781 C 4.992188 -8.425781 4.996094 -8.421875 5 -8.421875 C 5.046875 -8.371094 5.136719 -8.3125 5.269531 -8.253906 L 5.28125 -8.246094 L 5.289062 -8.242188 C 5.375 -8.199219 5.496094 -8.140625 5.660156 -8.066406 C 5.832031 -7.984375 6.027344 -7.890625 6.25 -7.785156 C 6.492188 -7.667969 6.75 -7.519531 7.019531 -7.34375 C 7.304688 -7.160156 7.605469 -6.925781 7.921875 -6.628906 C 8.652344 -5.941406 9.015625 -5.050781 9.015625 -3.949219 C 9.015625 -2.59375 8.632812 -1.476562 7.871094 -0.59375 C 7.085938 0.308594 5.910156 0.773438 4.347656 0.796875 C 3.625 0.796875 2.96875 0.738281 2.386719 0.617188 C 1.742188 0.484375 1.179688 0.222656 0.695312 -0.164062 C 0.136719 -0.617188 -0.144531 -1.171875 -0.144531 -1.832031 C -0.144531 -2.367188 -0.046875 -2.894531 0.148438 -3.421875 C 0.359375 -3.988281 0.605469 -4.382812 0.894531 -4.601562 L 1.285156 -4.898438 Z M 0.886719 -3.605469 L 1.277344 -4.101562 L 1.660156 -3.601562 C 1.628906 -3.574219 1.589844 -3.523438 1.539062 -3.441406 C 1.472656 -3.328125 1.402344 -3.171875 1.332031 -2.980469 C 1.1875 -2.597656 1.117188 -2.214844 1.117188 -1.832031 C 1.117188 -1.574219 1.242188 -1.34375 1.488281 -1.144531 C 1.8125 -0.886719 2.195312 -0.707031 2.640625 -0.617188 C 3.140625 -0.515625 3.703125 -0.460938 4.324219 -0.460938 C 5.515625 -0.480469 6.378906 -0.800781 6.917969 -1.421875 C 7.476562 -2.066406 7.753906 -2.90625 7.753906 -3.949219 C 7.753906 -4.6875 7.527344 -5.273438 7.066406 -5.703125 C 6.804688 -5.949219 6.558594 -6.140625 6.339844 -6.285156 C 6.105469 -6.433594 5.894531 -6.554688 5.699219 -6.652344 C 5.484375 -6.757812 5.292969 -6.847656 5.128906 -6.921875 C 4.953125 -7.003906 4.820312 -7.070312 4.726562 -7.117188 L 5.007812 -7.679688 L 4.746094 -7.105469 C 4.085938 -7.410156 3.753906 -7.820312 3.753906 -8.335938 C 3.753906 -8.527344 3.792969 -8.707031 3.867188 -8.867188 C 3.949219 -9.042969 4.070312 -9.1875 4.230469 -9.300781 C 4.484375 -9.480469 4.816406 -9.570312 5.234375 -9.570312 C 5.902344 -9.570312 6.640625 -9.363281 7.449219 -8.945312 L 7.160156 -8.386719 L 6.808594 -8.910156 C 6.777344 -8.886719 6.75 -8.867188 6.730469 -8.84375 L 6.726562 -8.84375 C 6.75 -8.871094 6.773438 -8.917969 6.804688 -8.976562 C 6.882812 -9.125 6.980469 -9.34375 7.097656 -9.625 C 7.3125 -10.148438 7.417969 -10.5625 7.417969 -10.871094 L 7.417969 -10.972656 L 8.050781 -10.972656 L 7.421875 -10.921875 C 7.425781 -10.875 7.441406 -10.832031 7.464844 -10.796875 L 7.464844 -10.792969 C 7.457031 -10.804688 7.445312 -10.8125 7.425781 -10.824219 C 7.308594 -10.898438 7.109375 -10.972656 6.835938 -11.042969 C 6.203125 -11.203125 5.507812 -11.285156 4.753906 -11.285156 C 3.734375 -11.285156 2.914062 -11 2.300781 -10.433594 C 1.703125 -9.882812 1.402344 -9.203125 1.402344 -8.402344 C 1.402344 -7.550781 1.589844 -6.859375 1.960938 -6.328125 L 1.964844 -6.320312 L 1.96875 -6.316406 C 2.085938 -6.140625 2.261719 -5.96875 2.5 -5.792969 C 2.769531 -5.59375 2.984375 -5.453125 3.136719 -5.371094 C 3.304688 -5.28125 3.566406 -5.152344 3.914062 -4.988281 C 4.335938 -4.792969 4.636719 -4.605469 4.820312 -4.429688 C 5.085938 -4.175781 5.21875 -3.875 5.21875 -3.527344 C 5.21875 -3.136719 5.078125 -2.832031 4.796875 -2.617188 C 4.5625 -2.433594 4.253906 -2.34375 3.875 -2.34375 C 3.289062 -2.34375 2.6875 -2.515625 2.070312 -2.859375 C 1.519531 -3.167969 1.125 -3.417969 0.886719 -3.605469 Z M 0.886719 -3.605469 "/></g></g></g><g fill="#3871c1" fill-opacity="1"><g transform="translate(0.812889, 15.756279)"><g><path d="M 5.640625 -11.90625 C 6.460938 -11.90625 7.179688 -11.789062 7.796875 -11.5625 C 8.421875 -11.332031 8.734375 -11.019531 8.734375 -10.625 C 8.734375 -10.238281 8.582031 -9.753906 8.28125 -9.171875 C 7.988281 -8.597656 7.742188 -8.3125 7.546875 -8.3125 C 7.484375 -8.3125 7.414062 -8.34375 7.34375 -8.40625 C 7.269531 -8.46875 7.101562 -8.535156 6.84375 -8.609375 C 6.582031 -8.679688 6.359375 -8.71875 6.171875 -8.71875 C 5.515625 -8.71875 4.988281 -8.488281 4.59375 -8.03125 C 4.195312 -7.570312 4 -6.867188 4 -5.921875 C 4 -4.972656 4.203125 -4.269531 4.609375 -3.8125 C 5.015625 -3.351562 5.535156 -3.125 6.171875 -3.125 C 6.421875 -3.125 6.707031 -3.160156 7.03125 -3.234375 C 7.351562 -3.304688 7.578125 -3.410156 7.703125 -3.546875 C 7.734375 -3.566406 7.78125 -3.578125 7.84375 -3.578125 C 7.90625 -3.578125 8.03125 -3.453125 8.21875 -3.203125 C 8.40625 -2.953125 8.578125 -2.617188 8.734375 -2.203125 C 8.890625 -1.796875 8.96875 -1.484375 8.96875 -1.265625 C 8.96875 -0.828125 8.628906 -0.476562 7.953125 -0.21875 C 7.285156 0.0390625 6.492188 0.171875 5.578125 0.171875 C 4.097656 0.171875 2.878906 -0.347656 1.921875 -1.390625 C 0.972656 -2.429688 0.5 -3.898438 0.5 -5.796875 C 0.5 -7.703125 0.988281 -9.195312 1.96875 -10.28125 C 2.945312 -11.363281 4.171875 -11.90625 5.640625 -11.90625 Z M 5.640625 -11.90625 "/></g></g></g><g fill="#3871c1" fill-opacity="1"><g transform="translate(10.239895, 15.756279)"><g><path d="M 8.734375 0.03125 C 7.753906 0.03125 7.226562 -0.125 7.15625 -0.4375 L 6.59375 -2.609375 L 3.9375 -2.609375 L 3.4375 -0.515625 C 3.375 -0.171875 2.835938 0 1.828125 0 C 1.296875 0 0.898438 -0.03125 0.640625 -0.09375 C 0.378906 -0.15625 0.25 -0.203125 0.25 -0.234375 L 3.21875 -11.609375 C 3.21875 -11.691406 3.984375 -11.734375 5.515625 -11.734375 C 7.054688 -11.734375 7.828125 -11.691406 7.828125 -11.609375 L 10.734375 -0.21875 C 10.734375 -0.132812 10.472656 -0.0703125 9.953125 -0.03125 C 9.441406 0.0078125 9.035156 0.03125 8.734375 0.03125 Z M 4.34375 -4.734375 L 6.109375 -4.734375 L 5.359375 -8.21875 L 5.25 -8.21875 Z M 4.34375 -4.734375 "/></g></g></g><g fill="#3871c1" fill-opacity="1"><g transform="translate(21.246476, 15.756279)"><g><path d="M 12.59375 0.015625 C 11.601562 0.015625 11.109375 -0.09375 11.109375 -0.3125 L 10.75 -7.046875 L 8.703125 -0.234375 C 8.660156 -0.0976562 8.28125 -0.03125 7.5625 -0.03125 C 6.84375 -0.03125 6.472656 -0.09375 6.453125 -0.21875 L 4.328125 -7.125 L 4.09375 -0.421875 C 4.082031 -0.253906 3.867188 -0.140625 3.453125 -0.078125 C 3.046875 -0.015625 2.703125 0.015625 2.421875 0.015625 C 2.148438 0.015625 1.882812 0 1.625 -0.03125 C 1.09375 -0.113281 0.832031 -0.253906 0.84375 -0.453125 L 1.21875 -11.375 C 1.21875 -11.644531 1.90625 -11.78125 3.28125 -11.78125 C 3.675781 -11.78125 4.164062 -11.75 4.75 -11.6875 C 5.332031 -11.625 5.660156 -11.503906 5.734375 -11.328125 L 7.609375 -6.03125 L 9.25 -11.34375 C 9.351562 -11.632812 10.128906 -11.78125 11.578125 -11.78125 C 11.984375 -11.78125 12.472656 -11.75 13.046875 -11.6875 C 13.628906 -11.625 13.921875 -11.515625 13.921875 -11.359375 L 14.40625 -0.328125 C 14.40625 -0.210938 14.1875 -0.125 13.75 -0.0625 C 13.3125 -0.0078125 12.925781 0.015625 12.59375 0.015625 Z M 12.59375 0.015625 "/></g></g></g><g fill="#3871c1" fill-opacity="1"><g transform="translate(36.487646, 15.756279)"><g><path d="M 2.296875 0.03125 C 1.273438 0.03125 0.765625 -0.078125 0.765625 -0.296875 L 0.765625 -11.1875 C 0.765625 -11.5625 0.941406 -11.75 1.296875 -11.75 L 4.25 -11.75 C 5.90625 -11.75 7.097656 -11.40625 7.828125 -10.71875 C 8.566406 -10.039062 8.9375 -9.054688 8.9375 -7.765625 C 8.9375 -6.679688 8.585938 -5.691406 7.890625 -4.796875 C 7.546875 -4.347656 7.035156 -3.988281 6.359375 -3.71875 C 5.691406 -3.457031 4.910156 -3.328125 4.015625 -3.328125 L 4.015625 -0.3125 C 4.015625 -0.1875 3.800781 -0.0976562 3.375 -0.046875 C 2.957031 0.00390625 2.597656 0.03125 2.296875 0.03125 Z M 4.015625 -8.828125 L 4.015625 -6.1875 L 4.234375 -6.1875 C 4.628906 -6.1875 4.957031 -6.304688 5.21875 -6.546875 C 5.488281 -6.796875 5.625 -7.144531 5.625 -7.59375 C 5.625 -8.039062 5.53125 -8.359375 5.34375 -8.546875 C 5.164062 -8.734375 4.835938 -8.828125 4.359375 -8.828125 Z M 4.015625 -8.828125 "/></g></g></g><g fill="#3871c1" fill-opacity="1"><g transform="translate(46.065892, 15.756279)"><g><path d="M 6.328125 -11.421875 C 6.328125 -11.640625 6.9375 -11.75 8.15625 -11.75 C 9.375 -11.75 9.984375 -11.640625 9.984375 -11.421875 L 9.984375 -3.71875 C 9.984375 -2.570312 9.570312 -1.632812 8.75 -0.90625 C 7.9375 -0.1875 6.804688 0.171875 5.359375 0.171875 C 3.921875 0.171875 2.75 -0.195312 1.84375 -0.9375 C 0.945312 -1.6875 0.5 -2.695312 0.5 -3.96875 L 0.5 -11.40625 C 0.5 -11.625 1.109375 -11.734375 2.328125 -11.734375 C 3.546875 -11.734375 4.15625 -11.625 4.15625 -11.40625 L 4.15625 -3.828125 C 4.15625 -3.609375 4.269531 -3.429688 4.5 -3.296875 C 4.75 -3.160156 5.003906 -3.09375 5.265625 -3.09375 C 5.535156 -3.09375 5.78125 -3.148438 6 -3.265625 C 6.21875 -3.390625 6.328125 -3.578125 6.328125 -3.828125 Z M 6.328125 -11.421875 "/></g></g></g><g fill="#3871c1" fill-opacity="1"><g transform="translate(56.618763, 15.756279)"><g><path d="M 1.28125 -4.09375 C 1.488281 -3.925781 1.851562 -3.695312 2.375 -3.40625 C 2.894531 -3.113281 3.390625 -2.96875 3.859375 -2.96875 C 4.335938 -2.96875 4.578125 -3.15625 4.578125 -3.53125 C 4.578125 -3.695312 4.507812 -3.84375 4.375 -3.96875 C 4.25 -4.101562 4.003906 -4.253906 3.640625 -4.421875 C 3.285156 -4.585938 3.015625 -4.71875 2.828125 -4.8125 C 2.648438 -4.90625 2.410156 -5.0625 2.109375 -5.28125 C 1.816406 -5.5 1.59375 -5.726562 1.4375 -5.96875 C 0.988281 -6.601562 0.765625 -7.410156 0.765625 -8.390625 C 0.765625 -9.378906 1.128906 -10.210938 1.859375 -10.890625 C 2.597656 -11.566406 3.5625 -11.90625 4.75 -11.90625 C 5.5625 -11.90625 6.304688 -11.816406 6.984375 -11.640625 C 7.671875 -11.472656 8.023438 -11.25 8.046875 -10.96875 C 8.046875 -10.9375 8.046875 -10.90625 8.046875 -10.875 C 8.046875 -10.476562 7.921875 -9.976562 7.671875 -9.375 C 7.429688 -8.78125 7.257812 -8.445312 7.15625 -8.375 C 6.4375 -8.75 5.796875 -8.9375 5.234375 -8.9375 C 4.671875 -8.9375 4.390625 -8.734375 4.390625 -8.328125 C 4.390625 -8.085938 4.59375 -7.867188 5 -7.671875 C 5.09375 -7.628906 5.222656 -7.566406 5.390625 -7.484375 C 5.554688 -7.410156 5.75 -7.316406 5.96875 -7.203125 C 6.1875 -7.097656 6.421875 -6.960938 6.671875 -6.796875 C 6.921875 -6.640625 7.191406 -6.429688 7.484375 -6.171875 C 8.078125 -5.609375 8.375 -4.867188 8.375 -3.953125 C 8.375 -2.753906 8.046875 -1.769531 7.390625 -1 C 6.734375 -0.238281 5.710938 0.148438 4.328125 0.171875 C 3.660156 0.171875 3.054688 0.113281 2.515625 0 C 1.972656 -0.113281 1.5 -0.332031 1.09375 -0.65625 C 0.6875 -0.976562 0.484375 -1.367188 0.484375 -1.828125 C 0.484375 -2.285156 0.566406 -2.738281 0.734375 -3.1875 C 0.898438 -3.644531 1.082031 -3.945312 1.28125 -4.09375 Z M 1.28125 -4.09375 "/></g></g></g></g></g><g clip-path="url(#9e6269371c)"><g transform="matrix(1, 0, 0, 1, 13, 37)"><g clip-path="url(#6dd0f055f8)"><g clip-path="url(#390e45a4b8)"><g fill="#ffffff" fill-opacity="1"><g transform="translate(0.812889, 15.780988)"><g><path d="M 5.644531 -12.542969 C 6.539062 -12.542969 7.332031 -12.417969 8.023438 -12.160156 C 8.421875 -12.015625 8.730469 -11.832031 8.949219 -11.609375 C 9.230469 -11.332031 9.367188 -11.007812 9.367188 -10.636719 C 9.367188 -10.144531 9.195312 -9.5625 8.851562 -8.894531 C 8.683594 -8.5625 8.519531 -8.304688 8.359375 -8.121094 C 8.109375 -7.832031 7.839844 -7.6875 7.546875 -7.6875 C 7.335938 -7.6875 7.136719 -7.769531 6.945312 -7.929688 C 6.960938 -7.917969 6.972656 -7.90625 6.980469 -7.902344 C 6.972656 -7.90625 6.957031 -7.914062 6.9375 -7.921875 C 6.875 -7.945312 6.789062 -7.976562 6.679688 -8.003906 C 6.472656 -8.0625 6.300781 -8.089844 6.167969 -8.089844 C 5.710938 -8.089844 5.34375 -7.933594 5.074219 -7.621094 C 4.777344 -7.277344 4.628906 -6.714844 4.628906 -5.921875 C 4.628906 -5.136719 4.78125 -4.574219 5.082031 -4.234375 C 5.367188 -3.914062 5.726562 -3.753906 6.167969 -3.753906 C 6.378906 -3.753906 6.621094 -3.785156 6.890625 -3.847656 C 7.011719 -3.875 7.105469 -3.90625 7.179688 -3.941406 C 7.226562 -3.960938 7.253906 -3.976562 7.269531 -3.992188 C 7.414062 -4.136719 7.605469 -4.210938 7.847656 -4.210938 C 8.054688 -4.210938 8.253906 -4.117188 8.4375 -3.929688 C 8.523438 -3.84375 8.621094 -3.726562 8.734375 -3.574219 C 8.953125 -3.277344 9.148438 -2.898438 9.328125 -2.433594 C 9.511719 -1.953125 9.605469 -1.5625 9.605469 -1.261719 C 9.605469 -0.871094 9.460938 -0.53125 9.175781 -0.234375 C 8.941406 0.0078125 8.613281 0.207031 8.191406 0.371094 C 7.445312 0.65625 6.574219 0.796875 5.578125 0.796875 C 3.914062 0.796875 2.542969 0.207031 1.46875 -0.96875 C 0.40625 -2.132812 -0.125 -3.742188 -0.125 -5.804688 C -0.125 -7.867188 0.417969 -9.5 1.507812 -10.707031 C 2.613281 -11.933594 3.992188 -12.542969 5.644531 -12.542969 Z M 5.644531 -11.285156 C 4.367188 -11.285156 3.296875 -10.808594 2.441406 -9.863281 C 1.570312 -8.894531 1.132812 -7.542969 1.132812 -5.804688 C 1.132812 -4.070312 1.554688 -2.742188 2.398438 -1.820312 C 3.226562 -0.914062 4.285156 -0.460938 5.578125 -0.460938 C 6.421875 -0.460938 7.140625 -0.578125 7.738281 -0.808594 C 7.988281 -0.902344 8.164062 -1.003906 8.269531 -1.109375 C 8.320312 -1.160156 8.34375 -1.210938 8.34375 -1.261719 C 8.34375 -1.40625 8.277344 -1.648438 8.148438 -1.984375 C 8.011719 -2.339844 7.871094 -2.621094 7.71875 -2.828125 C 7.644531 -2.929688 7.585938 -3 7.546875 -3.039062 C 7.542969 -3.042969 7.542969 -3.046875 7.539062 -3.046875 C 7.546875 -3.039062 7.554688 -3.035156 7.566406 -3.027344 C 7.644531 -2.976562 7.738281 -2.949219 7.847656 -2.949219 C 7.867188 -2.949219 7.890625 -2.953125 7.917969 -2.960938 C 8.007812 -2.980469 8.085938 -3.027344 8.160156 -3.101562 C 7.9375 -2.878906 7.609375 -2.71875 7.171875 -2.621094 C 6.808594 -2.535156 6.472656 -2.496094 6.167969 -2.496094 C 5.351562 -2.496094 4.675781 -2.796875 4.140625 -3.394531 C 3.625 -3.972656 3.371094 -4.816406 3.371094 -5.921875 C 3.371094 -7.027344 3.621094 -7.867188 4.121094 -8.445312 C 4.644531 -9.050781 5.324219 -9.351562 6.167969 -9.351562 C 6.414062 -9.351562 6.699219 -9.308594 7.015625 -9.21875 C 7.367188 -9.121094 7.617188 -9.011719 7.757812 -8.890625 C 7.753906 -8.894531 7.742188 -8.902344 7.726562 -8.910156 C 7.671875 -8.9375 7.613281 -8.949219 7.546875 -8.949219 C 7.472656 -8.949219 7.414062 -8.933594 7.367188 -8.902344 C 7.371094 -8.90625 7.382812 -8.921875 7.40625 -8.945312 C 7.5 -9.054688 7.605469 -9.226562 7.734375 -9.472656 C 7.984375 -9.957031 8.109375 -10.347656 8.109375 -10.636719 C 8.109375 -10.660156 8.09375 -10.6875 8.058594 -10.71875 C 7.96875 -10.808594 7.8125 -10.894531 7.585938 -10.980469 C 7.035156 -11.183594 6.390625 -11.285156 5.644531 -11.285156 Z M 5.644531 -11.285156 "/></g></g></g></g><g fill="#ffffff" fill-opacity="1"><g transform="translate(10.239895, 15.780988)"><g><path d="M 5.839844 0.796875 C 4.085938 0.796875 2.652344 0.21875 1.539062 -0.941406 C 0.429688 -2.09375 -0.125 -3.742188 -0.125 -5.890625 C -0.125 -8.039062 0.4375 -9.683594 1.558594 -10.828125 C 2.683594 -11.972656 4.128906 -12.542969 5.890625 -12.542969 C 7.652344 -12.542969 9.082031 -11.980469 10.183594 -10.851562 C 11.273438 -9.726562 11.820312 -8.058594 11.820312 -5.855469 C 11.820312 -3.648438 11.261719 -1.988281 10.140625 -0.871094 C 9.019531 0.242188 7.585938 0.796875 5.839844 0.796875 Z M 5.839844 -0.460938 C 7.242188 -0.460938 8.378906 -0.898438 9.25 -1.765625 C 10.125 -2.632812 10.5625 -3.996094 10.5625 -5.855469 C 10.5625 -7.71875 10.132812 -9.089844 9.277344 -9.972656 C 8.425781 -10.847656 7.296875 -11.285156 5.890625 -11.285156 C 4.480469 -11.285156 3.335938 -10.835938 2.457031 -9.941406 C 1.574219 -9.046875 1.132812 -7.695312 1.132812 -5.890625 C 1.132812 -4.082031 1.570312 -2.722656 2.445312 -1.816406 C 3.3125 -0.914062 4.445312 -0.460938 5.839844 -0.460938 Z M 5.847656 -8.058594 C 5.523438 -8.058594 5.242188 -7.898438 5.003906 -7.574219 C 4.71875 -7.191406 4.578125 -6.625 4.578125 -5.875 C 4.578125 -5.121094 4.710938 -4.558594 4.980469 -4.195312 C 5.199219 -3.890625 5.488281 -3.738281 5.839844 -3.738281 C 6.191406 -3.738281 6.480469 -3.894531 6.710938 -4.203125 C 6.980469 -4.574219 7.117188 -5.140625 7.117188 -5.898438 C 7.117188 -6.652344 6.976562 -7.214844 6.699219 -7.585938 C 6.460938 -7.898438 6.175781 -8.058594 5.847656 -8.058594 Z M 5.847656 -9.316406 C 6.59375 -9.316406 7.214844 -8.992188 7.703125 -8.34375 C 8.152344 -7.75 8.378906 -6.9375 8.378906 -5.898438 C 8.378906 -4.863281 8.160156 -4.050781 7.726562 -3.460938 C 7.246094 -2.804688 6.617188 -2.480469 5.839844 -2.480469 C 5.058594 -2.480469 4.433594 -2.804688 3.960938 -3.453125 C 3.53125 -4.039062 3.320312 -4.84375 3.320312 -5.875 C 3.320312 -6.902344 3.542969 -7.71875 3.988281 -8.324219 C 4.476562 -8.988281 5.097656 -9.316406 5.847656 -9.316406 Z M 5.847656 -9.316406 "/></g></g></g><g fill="#ffffff" fill-opacity="1"><g transform="translate(21.935436, 15.780988)"><g><path d="M 0.0429688 -0.992188 L 0.0429688 -11.445312 C 0.0429688 -11.605469 0.0898438 -11.75 0.179688 -11.882812 C 0.246094 -11.984375 0.335938 -12.066406 0.445312 -12.132812 C 0.582031 -12.21875 0.753906 -12.28125 0.972656 -12.324219 C 1.296875 -12.394531 1.765625 -12.425781 2.378906 -12.425781 C 2.988281 -12.425781 3.457031 -12.394531 3.785156 -12.324219 C 4 -12.28125 4.175781 -12.21875 4.308594 -12.132812 C 4.417969 -12.066406 4.507812 -11.984375 4.574219 -11.882812 C 4.667969 -11.75 4.714844 -11.605469 4.714844 -11.445312 L 4.714844 -3.210938 L 4.082031 -3.210938 L 4.082031 -3.839844 L 6.671875 -3.839844 C 7.234375 -3.839844 7.582031 -3.398438 7.714844 -2.511719 C 7.753906 -2.21875 7.773438 -1.925781 7.773438 -1.628906 C 7.773438 -1.335938 7.753906 -1.035156 7.71875 -0.730469 L 7.714844 -0.71875 L 7.714844 -0.703125 C 7.566406 0.1875 7.210938 0.628906 6.65625 0.628906 L 1.480469 0.628906 C 1.253906 0.628906 1.046875 0.582031 0.859375 0.484375 C 0.671875 0.386719 0.511719 0.25 0.378906 0.0664062 C 0.15625 -0.246094 0.0429688 -0.597656 0.0429688 -0.992188 Z M 1.300781 -0.992188 C 1.300781 -0.871094 1.335938 -0.761719 1.402344 -0.671875 C 1.414062 -0.652344 1.425781 -0.640625 1.433594 -0.636719 C 1.441406 -0.632812 1.457031 -0.628906 1.480469 -0.628906 L 6.65625 -0.628906 C 6.5625 -0.628906 6.480469 -0.601562 6.410156 -0.546875 C 6.390625 -0.535156 6.375 -0.519531 6.363281 -0.503906 L 6.359375 -0.5 C 6.398438 -0.574219 6.4375 -0.710938 6.46875 -0.910156 L 7.089844 -0.804688 L 6.464844 -0.882812 C 6.496094 -1.136719 6.511719 -1.386719 6.511719 -1.628906 C 6.511719 -1.871094 6.496094 -2.105469 6.46875 -2.328125 C 6.441406 -2.519531 6.40625 -2.648438 6.371094 -2.714844 C 6.378906 -2.703125 6.398438 -2.683594 6.425781 -2.660156 C 6.496094 -2.605469 6.578125 -2.578125 6.671875 -2.578125 L 3.453125 -2.578125 L 3.453125 -11.445312 C 3.453125 -11.34375 3.480469 -11.25 3.539062 -11.167969 C 3.570312 -11.121094 3.605469 -11.085938 3.644531 -11.0625 C 3.648438 -11.058594 3.652344 -11.058594 3.65625 -11.054688 C 3.652344 -11.058594 3.644531 -11.058594 3.636719 -11.0625 C 3.609375 -11.074219 3.574219 -11.082031 3.53125 -11.089844 C 3.289062 -11.140625 2.902344 -11.167969 2.378906 -11.167969 C 1.851562 -11.167969 1.46875 -11.140625 1.226562 -11.089844 C 1.179688 -11.082031 1.144531 -11.074219 1.117188 -11.0625 C 1.109375 -11.058594 1.105469 -11.058594 1.101562 -11.054688 C 1.101562 -11.058594 1.105469 -11.058594 1.109375 -11.0625 C 1.148438 -11.085938 1.183594 -11.121094 1.21875 -11.167969 C 1.273438 -11.25 1.300781 -11.34375 1.300781 -11.445312 Z M 1.300781 -0.992188 "/></g></g></g><g fill="#ffffff" fill-opacity="1"><g transform="translate(29.245147, 15.780988)"><g><path d="M 5.839844 0.796875 C 4.085938 0.796875 2.652344 0.21875 1.539062 -0.941406 C 0.429688 -2.09375 -0.125 -3.742188 -0.125 -5.890625 C -0.125 -8.039062 0.4375 -9.683594 1.558594 -10.828125 C 2.683594 -11.972656 4.128906 -12.542969 5.890625 -12.542969 C 7.652344 -12.542969 9.082031 -11.980469 10.183594 -10.851562 C 11.273438 -9.726562 11.820312 -8.058594 11.820312 -5.855469 C 11.820312 -3.648438 11.261719 -1.988281 10.140625 -0.871094 C 9.019531 0.242188 7.585938 0.796875 5.839844 0.796875 Z M 5.839844 -0.460938 C 7.242188 -0.460938 8.378906 -0.898438 9.25 -1.765625 C 10.125 -2.632812 10.5625 -3.996094 10.5625 -5.855469 C 10.5625 -7.71875 10.132812 -9.089844 9.277344 -9.972656 C 8.425781 -10.847656 7.296875 -11.285156 5.890625 -11.285156 C 4.480469 -11.285156 3.335938 -10.835938 2.457031 -9.941406 C 1.574219 -9.046875 1.132812 -7.695312 1.132812 -5.890625 C 1.132812 -4.082031 1.570312 -2.722656 2.445312 -1.816406 C 3.3125 -0.914062 4.445312 -0.460938 5.839844 -0.460938 Z M 5.847656 -8.058594 C 5.523438 -8.058594 5.242188 -7.898438 5.003906 -7.574219 C 4.71875 -7.191406 4.578125 -6.625 4.578125 -5.875 C 4.578125 -5.121094 4.710938 -4.558594 4.980469 -4.195312 C 5.199219 -3.890625 5.488281 -3.738281 5.839844 -3.738281 C 6.191406 -3.738281 6.480469 -3.894531 6.710938 -4.203125 C 6.980469 -4.574219 7.117188 -5.140625 7.117188 -5.898438 C 7.117188 -6.652344 6.976562 -7.214844 6.699219 -7.585938 C 6.460938 -7.898438 6.175781 -8.058594 5.847656 -8.058594 Z M 5.847656 -9.316406 C 6.59375 -9.316406 7.214844 -8.992188 7.703125 -8.34375 C 8.152344 -7.75 8.378906 -6.9375 8.378906 -5.898438 C 8.378906 -4.863281 8.160156 -4.050781 7.726562 -3.460938 C 7.246094 -2.804688 6.617188 -2.480469 5.839844 -2.480469 C 5.058594 -2.480469 4.433594 -2.804688 3.960938 -3.453125 C 3.53125 -4.039062 3.320312 -4.84375 3.320312 -5.875 C 3.320312 -6.902344 3.542969 -7.71875 3.988281 -8.324219 C 4.476562 -8.988281 5.097656 -9.316406 5.847656 -9.316406 Z M 5.847656 -9.316406 "/></g></g></g><g fill="#ffffff" fill-opacity="1"><g transform="translate(40.940688, 15.780988)"><g><path d="M 9.722656 -8.722656 C 9.722656 -8.027344 9.566406 -7.410156 9.261719 -6.871094 C 8.953125 -6.332031 8.5 -5.886719 7.902344 -5.527344 L 7.578125 -6.066406 L 7.796875 -6.65625 C 8.460938 -6.414062 9.015625 -5.996094 9.460938 -5.402344 C 9.914062 -4.796875 10.140625 -3.972656 10.140625 -2.933594 C 10.140625 -1.828125 9.726562 -0.949219 8.902344 -0.296875 C 8.121094 0.320312 7.035156 0.628906 5.644531 0.628906 L 1.679688 0.628906 C 1.308594 0.628906 1 0.5 0.753906 0.242188 C 0.515625 -0.0078125 0.394531 -0.324219 0.394531 -0.707031 L 0.394531 -11.460938 C 0.394531 -11.757812 0.476562 -11.988281 0.636719 -12.148438 C 0.800781 -12.3125 1.03125 -12.394531 1.328125 -12.394531 L 5.160156 -12.394531 C 6.613281 -12.394531 7.726562 -12.097656 8.492188 -11.5 C 9.3125 -10.867188 9.722656 -9.941406 9.722656 -8.722656 Z M 8.460938 -8.722656 C 8.460938 -9.527344 8.214844 -10.125 7.722656 -10.503906 C 7.179688 -10.921875 6.328125 -11.132812 5.160156 -11.132812 L 1.328125 -11.132812 C 1.316406 -11.132812 1.308594 -11.132812 1.304688 -11.132812 C 1.308594 -11.132812 1.3125 -11.132812 1.320312 -11.136719 C 1.394531 -11.152344 1.464844 -11.195312 1.53125 -11.257812 C 1.59375 -11.324219 1.632812 -11.390625 1.652344 -11.464844 C 1.65625 -11.476562 1.65625 -11.480469 1.65625 -11.484375 C 1.65625 -11.480469 1.65625 -11.472656 1.65625 -11.460938 L 1.65625 -0.707031 C 1.65625 -0.660156 1.660156 -0.636719 1.664062 -0.628906 L 1.667969 -0.628906 C 1.664062 -0.628906 1.660156 -0.628906 1.660156 -0.632812 C 1.664062 -0.628906 1.671875 -0.628906 1.679688 -0.628906 L 5.644531 -0.628906 C 6.742188 -0.628906 7.570312 -0.847656 8.121094 -1.285156 C 8.628906 -1.683594 8.882812 -2.234375 8.882812 -2.933594 C 8.882812 -3.695312 8.738281 -4.265625 8.453125 -4.644531 C 8.15625 -5.039062 7.792969 -5.316406 7.363281 -5.476562 L 6.125 -5.929688 L 7.253906 -6.605469 C 7.664062 -6.851562 7.96875 -7.148438 8.164062 -7.496094 C 8.363281 -7.839844 8.460938 -8.25 8.460938 -8.722656 Z M 4.882812 -9.039062 L 4.882812 -6.839844 L 4.25 -6.839844 L 4.25 -7.46875 L 4.335938 -7.46875 C 4.746094 -7.46875 5.03125 -7.523438 5.195312 -7.632812 C 5.238281 -7.660156 5.265625 -7.691406 5.285156 -7.726562 C 5.308594 -7.773438 5.320312 -7.835938 5.320312 -7.914062 C 5.320312 -8.113281 5.289062 -8.242188 5.226562 -8.296875 C 5.195312 -8.320312 5.144531 -8.34375 5.066406 -8.363281 C 4.945312 -8.394531 4.792969 -8.410156 4.605469 -8.410156 L 4.25 -8.410156 L 4.25 -9.039062 Z M 3.621094 -9.671875 L 4.605469 -9.671875 C 5.242188 -9.671875 5.722656 -9.53125 6.050781 -9.25 C 6.402344 -8.945312 6.578125 -8.5 6.578125 -7.914062 C 6.578125 -7.636719 6.523438 -7.386719 6.410156 -7.164062 C 6.292969 -6.929688 6.121094 -6.734375 5.894531 -6.582031 C 5.519531 -6.335938 5 -6.210938 4.335938 -6.210938 L 3.621094 -6.210938 Z M 4.882812 -4.855469 L 4.882812 -2.671875 L 4.25 -2.671875 L 4.25 -3.300781 L 4.554688 -3.300781 C 4.886719 -3.300781 5.109375 -3.347656 5.21875 -3.433594 C 5.285156 -3.484375 5.320312 -3.609375 5.320312 -3.796875 C 5.320312 -3.917969 5.304688 -4.007812 5.28125 -4.074219 C 5.273438 -4.097656 5.265625 -4.113281 5.257812 -4.117188 C 5.226562 -4.140625 5.167969 -4.164062 5.085938 -4.183594 C 4.957031 -4.210938 4.796875 -4.226562 4.605469 -4.226562 L 4.25 -4.226562 L 4.25 -4.855469 Z M 3.621094 -5.488281 L 4.605469 -5.488281 C 5.226562 -5.488281 5.699219 -5.367188 6.019531 -5.125 C 6.390625 -4.839844 6.578125 -4.398438 6.578125 -3.796875 C 6.578125 -3.203125 6.386719 -2.753906 6.007812 -2.449219 C 5.667969 -2.175781 5.183594 -2.042969 4.554688 -2.042969 L 3.621094 -2.042969 Z M 3.621094 -5.488281 "/></g></g></g><g fill="#ffffff" fill-opacity="1"><g transform="translate(50.922225, 15.780988)"><g><path d="M 8.738281 0.664062 C 8.191406 0.664062 7.753906 0.617188 7.433594 0.519531 C 6.941406 0.375 6.644531 0.105469 6.546875 -0.285156 L 5.992188 -2.449219 L 6.605469 -2.605469 L 6.605469 -1.972656 L 3.933594 -1.972656 L 3.933594 -2.605469 L 4.546875 -2.460938 L 4.058594 -0.378906 L 3.445312 -0.519531 L 4.0625 -0.402344 C 4.019531 -0.171875 3.902344 0.0234375 3.71875 0.183594 C 3.578125 0.304688 3.398438 0.398438 3.183594 0.46875 C 2.851562 0.578125 2.402344 0.628906 1.832031 0.628906 C 1.246094 0.628906 0.796875 0.59375 0.492188 0.519531 C 0.339844 0.484375 0.21875 0.449219 0.128906 0.417969 C -0.207031 0.292969 -0.378906 0.0742188 -0.378906 -0.234375 L -0.378906 -0.316406 L 2.617188 -11.769531 L 3.226562 -11.613281 L 2.597656 -11.613281 C 2.597656 -11.988281 2.816406 -12.214844 3.261719 -12.292969 C 3.382812 -12.3125 3.550781 -12.328125 3.765625 -12.34375 C 4.160156 -12.363281 4.75 -12.375 5.527344 -12.375 C 6.308594 -12.375 6.894531 -12.363281 7.292969 -12.34375 C 7.507812 -12.328125 7.675781 -12.3125 7.796875 -12.292969 C 8.238281 -12.214844 8.460938 -11.988281 8.460938 -11.613281 L 7.832031 -11.613281 L 8.441406 -11.769531 L 11.367188 -0.296875 L 11.367188 -0.21875 C 11.367188 0.152344 11.144531 0.390625 10.691406 0.5 C 10.53125 0.539062 10.308594 0.570312 10.019531 0.59375 C 9.484375 0.640625 9.058594 0.664062 8.738281 0.664062 Z M 8.738281 -0.597656 C 9.023438 -0.597656 9.414062 -0.617188 9.910156 -0.660156 C 10.136719 -0.679688 10.300781 -0.703125 10.398438 -0.726562 C 10.410156 -0.730469 10.421875 -0.730469 10.425781 -0.734375 C 10.417969 -0.730469 10.402344 -0.726562 10.390625 -0.714844 C 10.339844 -0.6875 10.292969 -0.652344 10.25 -0.601562 C 10.15625 -0.492188 10.109375 -0.367188 10.109375 -0.21875 L 10.738281 -0.21875 L 10.128906 -0.0625 L 7.199219 -11.53125 L 7.199219 -11.613281 C 7.199219 -11.425781 7.269531 -11.273438 7.40625 -11.152344 C 7.453125 -11.113281 7.503906 -11.082031 7.554688 -11.058594 C 7.570312 -11.054688 7.585938 -11.050781 7.59375 -11.046875 C 7.59375 -11.046875 7.585938 -11.046875 7.578125 -11.050781 C 7.507812 -11.0625 7.386719 -11.074219 7.21875 -11.082031 C 6.847656 -11.105469 6.285156 -11.117188 5.527344 -11.117188 C 4.773438 -11.117188 4.210938 -11.105469 3.839844 -11.082031 C 3.671875 -11.074219 3.550781 -11.0625 3.480469 -11.050781 C 3.46875 -11.046875 3.464844 -11.046875 3.460938 -11.046875 C 3.472656 -11.050781 3.484375 -11.054688 3.5 -11.058594 C 3.554688 -11.082031 3.605469 -11.113281 3.652344 -11.152344 C 3.789062 -11.273438 3.855469 -11.425781 3.855469 -11.613281 L 3.855469 -11.53125 L 0.863281 -0.0742188 L 0.253906 -0.234375 L 0.882812 -0.234375 C 0.882812 -0.386719 0.832031 -0.519531 0.734375 -0.636719 C 0.699219 -0.675781 0.65625 -0.710938 0.613281 -0.742188 C 0.589844 -0.753906 0.578125 -0.761719 0.566406 -0.765625 C 0.609375 -0.75 0.679688 -0.730469 0.785156 -0.707031 C 0.996094 -0.65625 1.34375 -0.628906 1.832031 -0.628906 C 2.269531 -0.628906 2.589844 -0.664062 2.796875 -0.730469 C 2.851562 -0.746094 2.882812 -0.761719 2.894531 -0.769531 C 2.859375 -0.742188 2.835938 -0.695312 2.828125 -0.640625 L 2.828125 -0.652344 L 3.433594 -3.234375 L 7.09375 -3.234375 L 7.769531 -0.589844 C 7.753906 -0.652344 7.726562 -0.699219 7.6875 -0.730469 C 7.703125 -0.71875 7.738281 -0.703125 7.792969 -0.6875 C 7.996094 -0.628906 8.3125 -0.597656 8.738281 -0.597656 Z M 4.351562 -5.367188 L 6.117188 -5.367188 L 6.117188 -4.738281 L 5.5 -4.605469 L 4.746094 -8.082031 L 5.359375 -8.21875 L 5.359375 -7.585938 L 5.261719 -7.585938 L 5.261719 -8.21875 L 5.871094 -8.058594 L 4.960938 -4.578125 L 4.351562 -4.738281 Z M 3.535156 -4.109375 L 4.773438 -8.847656 L 5.867188 -8.847656 L 6.898438 -4.109375 Z M 3.535156 -4.109375 "/></g></g></g><g fill="#ffffff" fill-opacity="1"><g transform="translate(61.928805, 15.780988)"><g><path d="M 10.679688 -0.371094 C 10.679688 -0.21875 10.636719 -0.078125 10.554688 0.0507812 C 10.492188 0.152344 10.40625 0.238281 10.300781 0.308594 C 10.171875 0.394531 10 0.464844 9.792969 0.511719 C 9.484375 0.578125 9.042969 0.613281 8.46875 0.613281 C 7.914062 0.613281 7.476562 0.589844 7.160156 0.542969 C 6.972656 0.515625 6.8125 0.476562 6.6875 0.429688 C 6.457031 0.34375 6.296875 0.207031 6.199219 0.0273438 L 3.394531 -5.214844 L 3.949219 -5.511719 L 4.578125 -5.511719 L 4.578125 -0.285156 C 4.578125 0.160156 4.28125 0.441406 3.679688 0.558594 C 3.382812 0.617188 2.953125 0.648438 2.394531 0.648438 C 1.835938 0.648438 1.40625 0.617188 1.109375 0.558594 C 0.507812 0.441406 0.210938 0.160156 0.210938 -0.285156 L 0.210938 -11.527344 C 0.210938 -11.6875 0.257812 -11.835938 0.355469 -11.964844 C 0.421875 -12.054688 0.507812 -12.128906 0.609375 -12.1875 C 0.726562 -12.253906 0.875 -12.300781 1.054688 -12.335938 C 1.316406 -12.386719 1.6875 -12.410156 2.167969 -12.410156 C 2.542969 -12.410156 2.976562 -12.378906 3.46875 -12.3125 C 3.753906 -12.273438 3.992188 -12.214844 4.183594 -12.140625 C 4.457031 -12.027344 4.652344 -11.871094 4.773438 -11.667969 L 4.785156 -11.652344 L 7.484375 -6.457031 L 6.921875 -6.167969 L 6.292969 -6.167969 L 6.292969 -11.445312 C 6.292969 -11.601562 6.339844 -11.75 6.429688 -11.878906 C 6.496094 -11.976562 6.585938 -12.054688 6.691406 -12.121094 C 6.820312 -12.199219 6.984375 -12.257812 7.1875 -12.300781 C 7.488281 -12.363281 7.921875 -12.394531 8.484375 -12.394531 C 9.050781 -12.394531 9.484375 -12.363281 9.785156 -12.300781 C 9.988281 -12.257812 10.152344 -12.199219 10.28125 -12.121094 C 10.386719 -12.054688 10.476562 -11.976562 10.542969 -11.878906 C 10.632812 -11.75 10.679688 -11.601562 10.679688 -11.445312 Z M 9.417969 -0.371094 L 9.417969 -11.445312 C 9.417969 -11.339844 9.449219 -11.242188 9.507812 -11.15625 C 9.542969 -11.109375 9.578125 -11.070312 9.621094 -11.046875 C 9.628906 -11.042969 9.632812 -11.039062 9.636719 -11.039062 C 9.636719 -11.039062 9.632812 -11.039062 9.625 -11.042969 C 9.601562 -11.050781 9.570312 -11.058594 9.53125 -11.066406 C 9.3125 -11.109375 8.964844 -11.132812 8.484375 -11.132812 C 8.007812 -11.132812 7.660156 -11.109375 7.441406 -11.066406 C 7.402344 -11.058594 7.371094 -11.050781 7.347656 -11.042969 C 7.339844 -11.039062 7.335938 -11.039062 7.335938 -11.039062 C 7.339844 -11.039062 7.34375 -11.042969 7.351562 -11.046875 C 7.390625 -11.070312 7.429688 -11.109375 7.464844 -11.15625 C 7.523438 -11.242188 7.554688 -11.339844 7.554688 -11.445312 L 7.554688 -6.167969 L 6.363281 -5.875 L 3.675781 -11.050781 L 4.234375 -11.34375 L 3.695312 -11.019531 C 3.710938 -10.988281 3.730469 -10.964844 3.75 -10.953125 C 3.746094 -10.957031 3.730469 -10.960938 3.710938 -10.972656 C 3.617188 -11.007812 3.484375 -11.039062 3.304688 -11.0625 C 2.867188 -11.121094 2.488281 -11.148438 2.167969 -11.148438 C 1.765625 -11.148438 1.472656 -11.132812 1.289062 -11.097656 C 1.257812 -11.09375 1.234375 -11.085938 1.21875 -11.082031 C 1.214844 -11.078125 1.214844 -11.078125 1.210938 -11.078125 C 1.21875 -11.082031 1.226562 -11.085938 1.234375 -11.089844 C 1.28125 -11.117188 1.324219 -11.15625 1.363281 -11.207031 C 1.433594 -11.300781 1.46875 -11.410156 1.46875 -11.527344 L 1.46875 -0.285156 C 1.46875 -0.398438 1.4375 -0.5 1.371094 -0.585938 C 1.335938 -0.636719 1.296875 -0.671875 1.253906 -0.699219 C 1.277344 -0.691406 1.308594 -0.683594 1.347656 -0.675781 C 1.570312 -0.632812 1.917969 -0.613281 2.394531 -0.613281 C 2.871094 -0.613281 3.222656 -0.632812 3.441406 -0.675781 C 3.480469 -0.683594 3.511719 -0.691406 3.535156 -0.699219 C 3.492188 -0.671875 3.453125 -0.636719 3.417969 -0.585938 C 3.351562 -0.5 3.320312 -0.398438 3.320312 -0.285156 L 3.320312 -5.511719 L 4.503906 -5.808594 L 7.3125 -0.566406 C 7.273438 -0.632812 7.230469 -0.6875 7.171875 -0.726562 C 7.15625 -0.738281 7.144531 -0.746094 7.136719 -0.746094 C 7.175781 -0.730469 7.246094 -0.71875 7.34375 -0.703125 C 7.597656 -0.664062 7.972656 -0.648438 8.46875 -0.648438 C 8.949219 -0.648438 9.296875 -0.671875 9.515625 -0.71875 C 9.554688 -0.726562 9.585938 -0.738281 9.605469 -0.746094 C 9.613281 -0.746094 9.617188 -0.75 9.617188 -0.75 C 9.613281 -0.746094 9.605469 -0.742188 9.597656 -0.738281 C 9.558594 -0.710938 9.523438 -0.675781 9.492188 -0.625 C 9.445312 -0.546875 9.417969 -0.464844 9.417969 -0.371094 Z M 9.417969 -0.371094 "/></g></g></g><g clip-path="url(#a3be5bd9d1)"><g fill="#ffffff" fill-opacity="1"><g transform="translate(72.817755, 15.780988)"><g><path d="M 6.300781 -7.722656 C 6.554688 -7.722656 6.765625 -7.621094 6.929688 -7.414062 C 7.027344 -7.296875 7.097656 -7.148438 7.148438 -6.960938 C 7.21875 -6.710938 7.25 -6.363281 7.25 -5.914062 C 7.25 -5.648438 7.222656 -5.335938 7.167969 -4.984375 C 7.128906 -4.75 7.070312 -4.554688 6.984375 -4.410156 C 6.914062 -4.289062 6.828125 -4.191406 6.722656 -4.117188 C 6.585938 -4.023438 6.433594 -3.972656 6.269531 -3.972656 L 4.132812 -3.972656 L 4.132812 -4.605469 L 4.765625 -4.605469 L 4.765625 -2.925781 L 4.132812 -2.925781 L 4.132812 -3.554688 L 7.226562 -3.554688 C 7.78125 -3.554688 8.121094 -3.125 8.238281 -2.269531 C 8.273438 -2.03125 8.292969 -1.777344 8.292969 -1.503906 C 8.292969 -1.226562 8.257812 -0.878906 8.183594 -0.460938 C 8.054688 0.265625 7.734375 0.628906 7.226562 0.628906 L 1.480469 0.628906 C 1.117188 0.628906 0.824219 0.539062 0.601562 0.359375 C 0.339844 0.144531 0.210938 -0.148438 0.210938 -0.519531 L 0.210938 -11.328125 C 0.210938 -11.632812 0.296875 -11.878906 0.464844 -12.070312 C 0.65625 -12.285156 0.910156 -12.394531 1.226562 -12.394531 L 7.242188 -12.394531 C 7.390625 -12.394531 7.523438 -12.355469 7.652344 -12.28125 C 7.75 -12.21875 7.835938 -12.136719 7.910156 -12.035156 C 8.003906 -11.90625 8.074219 -11.742188 8.121094 -11.535156 C 8.191406 -11.242188 8.226562 -10.820312 8.226562 -10.277344 C 8.226562 -9.730469 8.191406 -9.3125 8.121094 -9.015625 C 8.074219 -8.8125 8.003906 -8.644531 7.910156 -8.515625 C 7.835938 -8.414062 7.75 -8.332031 7.652344 -8.273438 C 7.523438 -8.195312 7.390625 -8.160156 7.242188 -8.160156 L 4.132812 -8.160156 L 4.132812 -8.789062 L 4.765625 -8.789062 L 4.765625 -7.089844 L 4.132812 -7.089844 L 4.132812 -7.722656 Z M 6.300781 -6.460938 L 3.503906 -6.460938 L 3.503906 -9.417969 L 7.242188 -9.417969 C 7.15625 -9.417969 7.074219 -9.398438 7 -9.351562 C 6.953125 -9.324219 6.914062 -9.289062 6.882812 -9.246094 C 6.878906 -9.238281 6.875 -9.230469 6.871094 -9.226562 C 6.871094 -9.226562 6.871094 -9.222656 6.871094 -9.222656 C 6.871094 -9.226562 6.871094 -9.226562 6.871094 -9.230469 C 6.878906 -9.25 6.886719 -9.273438 6.894531 -9.304688 C 6.941406 -9.507812 6.964844 -9.828125 6.964844 -10.277344 C 6.964844 -10.722656 6.941406 -11.046875 6.894531 -11.246094 C 6.886719 -11.277344 6.878906 -11.304688 6.871094 -11.324219 C 6.871094 -11.324219 6.871094 -11.324219 6.871094 -11.328125 C 6.875 -11.320312 6.878906 -11.3125 6.882812 -11.304688 C 6.914062 -11.265625 6.953125 -11.230469 7 -11.199219 C 7.074219 -11.15625 7.15625 -11.132812 7.242188 -11.132812 L 1.226562 -11.132812 C 1.238281 -11.132812 1.257812 -11.136719 1.28125 -11.144531 C 1.328125 -11.164062 1.371094 -11.195312 1.410156 -11.238281 C 1.4375 -11.269531 1.457031 -11.304688 1.46875 -11.339844 C 1.46875 -11.34375 1.472656 -11.347656 1.472656 -11.351562 C 1.472656 -11.34375 1.46875 -11.335938 1.46875 -11.328125 L 1.46875 -0.519531 C 1.46875 -0.515625 1.46875 -0.507812 1.472656 -0.507812 C 1.46875 -0.515625 1.46875 -0.523438 1.464844 -0.53125 C 1.449219 -0.566406 1.429688 -0.59375 1.398438 -0.617188 C 1.382812 -0.632812 1.371094 -0.640625 1.363281 -0.640625 C 1.390625 -0.632812 1.429688 -0.628906 1.480469 -0.628906 L 7.226562 -0.628906 C 7.132812 -0.628906 7.046875 -0.601562 6.972656 -0.550781 C 6.929688 -0.523438 6.902344 -0.492188 6.882812 -0.460938 C 6.902344 -0.492188 6.921875 -0.566406 6.941406 -0.679688 C 7.003906 -1.027344 7.03125 -1.300781 7.03125 -1.503906 C 7.03125 -1.710938 7.019531 -1.910156 6.988281 -2.097656 C 6.964844 -2.273438 6.9375 -2.390625 6.90625 -2.445312 C 6.917969 -2.425781 6.9375 -2.40625 6.972656 -2.378906 C 7.046875 -2.320312 7.128906 -2.292969 7.226562 -2.292969 L 3.503906 -2.292969 L 3.503906 -5.234375 L 6.269531 -5.234375 C 6.167969 -5.234375 6.078125 -5.207031 6 -5.148438 C 5.953125 -5.117188 5.917969 -5.078125 5.894531 -5.039062 C 5.890625 -5.035156 5.886719 -5.03125 5.886719 -5.03125 C 5.890625 -5.035156 5.894531 -5.042969 5.894531 -5.054688 C 5.90625 -5.085938 5.914062 -5.128906 5.921875 -5.183594 C 5.96875 -5.46875 5.992188 -5.714844 5.992188 -5.914062 C 5.992188 -6.25 5.972656 -6.492188 5.933594 -6.632812 C 5.929688 -6.648438 5.925781 -6.660156 5.921875 -6.667969 C 5.929688 -6.652344 5.9375 -6.636719 5.953125 -6.621094 C 6.039062 -6.515625 6.15625 -6.460938 6.300781 -6.460938 Z M 6.300781 -6.460938 "/></g></g></g></g><g fill="#f08114" fill-opacity="1"><g transform="translate(0.812889, 15.780988)"><g><path d="M 5.640625 -11.90625 C 6.460938 -11.90625 7.179688 -11.789062 7.796875 -11.5625 C 8.421875 -11.332031 8.734375 -11.019531 8.734375 -10.625 C 8.734375 -10.238281 8.582031 -9.753906 8.28125 -9.171875 C 7.988281 -8.597656 7.742188 -8.3125 7.546875 -8.3125 C 7.484375 -8.3125 7.414062 -8.34375 7.34375 -8.40625 C 7.269531 -8.46875 7.101562 -8.535156 6.84375 -8.609375 C 6.582031 -8.679688 6.359375 -8.71875 6.171875 -8.71875 C 5.515625 -8.71875 4.988281 -8.488281 4.59375 -8.03125 C 4.195312 -7.570312 4 -6.867188 4 -5.921875 C 4 -4.972656 4.203125 -4.269531 4.609375 -3.8125 C 5.015625 -3.351562 5.535156 -3.125 6.171875 -3.125 C 6.421875 -3.125 6.707031 -3.160156 7.03125 -3.234375 C 7.351562 -3.304688 7.578125 -3.410156 7.703125 -3.546875 C 7.734375 -3.566406 7.78125 -3.578125 7.84375 -3.578125 C 7.90625 -3.578125 8.03125 -3.453125 8.21875 -3.203125 C 8.40625 -2.953125 8.578125 -2.617188 8.734375 -2.203125 C 8.890625 -1.796875 8.96875 -1.484375 8.96875 -1.265625 C 8.96875 -0.828125 8.628906 -0.476562 7.953125 -0.21875 C 7.285156 0.0390625 6.492188 0.171875 5.578125 0.171875 C 4.097656 0.171875 2.878906 -0.347656 1.921875 -1.390625 C 0.972656 -2.429688 0.5 -3.898438 0.5 -5.796875 C 0.5 -7.703125 0.988281 -9.195312 1.96875 -10.28125 C 2.945312 -11.363281 4.171875 -11.90625 5.640625 -11.90625 Z M 5.640625 -11.90625 "/></g></g></g><g fill="#f08114" fill-opacity="1"><g transform="translate(10.239895, 15.780988)"><g><path d="M 5.84375 0.171875 C 4.269531 0.171875 2.984375 -0.34375 1.984375 -1.375 C 0.992188 -2.40625 0.5 -3.910156 0.5 -5.890625 C 0.5 -7.867188 1 -9.363281 2 -10.375 C 3.007812 -11.394531 4.304688 -11.90625 5.890625 -11.90625 C 7.472656 -11.90625 8.75 -11.40625 9.71875 -10.40625 C 10.695312 -9.40625 11.1875 -7.890625 11.1875 -5.859375 C 11.1875 -3.828125 10.6875 -2.3125 9.6875 -1.3125 C 8.695312 -0.320312 7.414062 0.171875 5.84375 0.171875 Z M 5.84375 -8.6875 C 5.300781 -8.6875 4.847656 -8.4375 4.484375 -7.9375 C 4.128906 -7.445312 3.953125 -6.753906 3.953125 -5.859375 C 3.953125 -4.972656 4.125 -4.289062 4.46875 -3.8125 C 4.8125 -3.34375 5.265625 -3.109375 5.828125 -3.109375 C 6.398438 -3.109375 6.863281 -3.347656 7.21875 -3.828125 C 7.570312 -4.304688 7.75 -4.992188 7.75 -5.890625 C 7.75 -6.785156 7.566406 -7.472656 7.203125 -7.953125 C 6.835938 -8.441406 6.382812 -8.6875 5.84375 -8.6875 Z M 5.84375 -8.6875 "/></g></g></g><g fill="#f08114" fill-opacity="1"><g transform="translate(21.935436, 15.780988)"><g><path d="M 0.671875 -0.984375 L 0.671875 -11.4375 C 0.671875 -11.675781 1.238281 -11.796875 2.375 -11.796875 C 3.507812 -11.796875 4.078125 -11.675781 4.078125 -11.4375 L 4.078125 -3.203125 L 6.671875 -3.203125 C 6.867188 -3.203125 7.007812 -2.941406 7.09375 -2.421875 C 7.125 -2.160156 7.140625 -1.894531 7.140625 -1.625 C 7.140625 -1.351562 7.125 -1.082031 7.09375 -0.8125 C 7 -0.269531 6.851562 0 6.65625 0 L 1.484375 0 C 1.234375 0 1.035156 -0.0976562 0.890625 -0.296875 C 0.742188 -0.503906 0.671875 -0.734375 0.671875 -0.984375 Z M 0.671875 -0.984375 "/></g></g></g><g fill="#f08114" fill-opacity="1"><g transform="translate(29.245147, 15.780988)"><g><path d="M 5.84375 0.171875 C 4.269531 0.171875 2.984375 -0.34375 1.984375 -1.375 C 0.992188 -2.40625 0.5 -3.910156 0.5 -5.890625 C 0.5 -7.867188 1 -9.363281 2 -10.375 C 3.007812 -11.394531 4.304688 -11.90625 5.890625 -11.90625 C 7.472656 -11.90625 8.75 -11.40625 9.71875 -10.40625 C 10.695312 -9.40625 11.1875 -7.890625 11.1875 -5.859375 C 11.1875 -3.828125 10.6875 -2.3125 9.6875 -1.3125 C 8.695312 -0.320312 7.414062 0.171875 5.84375 0.171875 Z M 5.84375 -8.6875 C 5.300781 -8.6875 4.847656 -8.4375 4.484375 -7.9375 C 4.128906 -7.445312 3.953125 -6.753906 3.953125 -5.859375 C 3.953125 -4.972656 4.125 -4.289062 4.46875 -3.8125 C 4.8125 -3.34375 5.265625 -3.109375 5.828125 -3.109375 C 6.398438 -3.109375 6.863281 -3.347656 7.21875 -3.828125 C 7.570312 -4.304688 7.75 -4.992188 7.75 -5.890625 C 7.75 -6.785156 7.566406 -7.472656 7.203125 -7.953125 C 6.835938 -8.441406 6.382812 -8.6875 5.84375 -8.6875 Z M 5.84375 -8.6875 "/></g></g></g><g fill="#f08114" fill-opacity="1"><g transform="translate(40.940688, 15.780988)"><g><path d="M 9.09375 -8.71875 C 9.09375 -7.550781 8.585938 -6.664062 7.578125 -6.0625 C 8.117188 -5.863281 8.570312 -5.515625 8.9375 -5.015625 C 9.3125 -4.523438 9.5 -3.828125 9.5 -2.921875 C 9.5 -2.023438 9.164062 -1.3125 8.5 -0.78125 C 7.84375 -0.257812 6.890625 0 5.640625 0 L 1.671875 0 C 1.484375 0 1.328125 -0.0625 1.203125 -0.1875 C 1.085938 -0.320312 1.03125 -0.492188 1.03125 -0.703125 L 1.03125 -11.453125 C 1.03125 -11.578125 1.046875 -11.65625 1.078125 -11.6875 C 1.117188 -11.726562 1.203125 -11.75 1.328125 -11.75 L 5.15625 -11.75 C 7.78125 -11.75 9.09375 -10.738281 9.09375 -8.71875 Z M 4.25 -9.03125 L 4.25 -6.84375 L 4.328125 -6.84375 C 5.410156 -6.84375 5.953125 -7.195312 5.953125 -7.90625 C 5.953125 -8.300781 5.847656 -8.585938 5.640625 -8.765625 C 5.429688 -8.941406 5.085938 -9.03125 4.609375 -9.03125 Z M 4.25 -4.859375 L 4.25 -2.671875 L 4.546875 -2.671875 C 5.035156 -2.671875 5.390625 -2.757812 5.609375 -2.9375 C 5.835938 -3.113281 5.953125 -3.398438 5.953125 -3.796875 C 5.953125 -4.191406 5.847656 -4.46875 5.640625 -4.625 C 5.429688 -4.78125 5.085938 -4.859375 4.609375 -4.859375 Z M 4.25 -4.859375 "/></g></g></g><g fill="#f08114" fill-opacity="1"><g transform="translate(50.922225, 15.780988)"><g><path d="M 8.734375 0.03125 C 7.753906 0.03125 7.226562 -0.125 7.15625 -0.4375 L 6.59375 -2.609375 L 3.9375 -2.609375 L 3.4375 -0.515625 C 3.375 -0.171875 2.835938 0 1.828125 0 C 1.296875 0 0.898438 -0.03125 0.640625 -0.09375 C 0.378906 -0.15625 0.25 -0.203125 0.25 -0.234375 L 3.21875 -11.609375 C 3.21875 -11.691406 3.984375 -11.734375 5.515625 -11.734375 C 7.054688 -11.734375 7.828125 -11.691406 7.828125 -11.609375 L 10.734375 -0.21875 C 10.734375 -0.132812 10.472656 -0.0703125 9.953125 -0.03125 C 9.441406 0.0078125 9.035156 0.03125 8.734375 0.03125 Z M 4.34375 -4.734375 L 6.109375 -4.734375 L 5.359375 -8.21875 L 5.25 -8.21875 Z M 4.34375 -4.734375 "/></g></g></g><g fill="#f08114" fill-opacity="1"><g transform="translate(61.928805, 15.780988)"><g><path d="M 10.046875 -0.375 C 10.046875 -0.132812 9.519531 -0.015625 8.46875 -0.015625 C 7.414062 -0.015625 6.84375 -0.0976562 6.75 -0.265625 L 3.953125 -5.515625 L 3.953125 -0.28125 C 3.953125 -0.0820312 3.429688 0.015625 2.390625 0.015625 C 1.359375 0.015625 0.84375 -0.0820312 0.84375 -0.28125 L 0.84375 -11.515625 C 0.84375 -11.691406 1.285156 -11.78125 2.171875 -11.78125 C 2.515625 -11.78125 2.914062 -11.75 3.375 -11.6875 C 3.84375 -11.625 4.128906 -11.507812 4.234375 -11.34375 L 6.921875 -6.171875 L 6.921875 -11.4375 C 6.921875 -11.644531 7.441406 -11.75 8.484375 -11.75 C 9.523438 -11.75 10.046875 -11.644531 10.046875 -11.4375 Z M 10.046875 -0.375 "/></g></g></g><g fill="#f08114" fill-opacity="1"><g transform="translate(72.817755, 15.780988)"><g><path d="M 6.296875 -7.09375 C 6.515625 -7.09375 6.625 -6.695312 6.625 -5.90625 C 6.625 -5.675781 6.597656 -5.398438 6.546875 -5.078125 C 6.492188 -4.765625 6.398438 -4.609375 6.265625 -4.609375 L 4.125 -4.609375 L 4.125 -2.921875 L 7.21875 -2.921875 C 7.414062 -2.921875 7.546875 -2.675781 7.609375 -2.1875 C 7.640625 -1.96875 7.65625 -1.738281 7.65625 -1.5 C 7.65625 -1.257812 7.617188 -0.945312 7.546875 -0.5625 C 7.484375 -0.1875 7.375 0 7.21875 0 L 1.484375 0 C 1.054688 0 0.84375 -0.171875 0.84375 -0.515625 L 0.84375 -11.328125 C 0.84375 -11.609375 0.96875 -11.75 1.21875 -11.75 L 7.234375 -11.75 C 7.472656 -11.75 7.59375 -11.253906 7.59375 -10.265625 C 7.59375 -9.273438 7.472656 -8.78125 7.234375 -8.78125 L 4.125 -8.78125 L 4.125 -7.09375 Z M 6.296875 -7.09375 "/></g></g></g></g></g></g></g></g><path fill="#3871c1" d="M 27.0625 41.292969 L 27.0625 43.632812 C 27.0625 43.632812 30.089844 44.804688 31.921875 44.804688 C 33.753906 44.804688 36.777344 43.632812 36.777344 43.632812 L 36.777344 41.292969 L 31.921875 42.75 L 27.0625 41.292969 " fill-opacity="1" fill-rule="nonzero"/><g clip-path="url(#b420a47abb)"><path fill="#3871c1" d="M 25.550781 43.359375 C 25.613281 43.335938 25.65625 43.292969 25.65625 43.242188 C 25.65625 43.203125 25.628906 43.167969 25.589844 43.144531 C 25.667969 43.015625 25.75 42.835938 25.75 42.636719 C 25.75 42.402344 25.699219 42.195312 25.621094 42.070312 C 25.644531 42.035156 25.65625 41.992188 25.65625 41.945312 C 25.65625 41.878906 25.628906 41.820312 25.589844 41.777344 L 25.589844 40.566406 L 31.921875 42.324219 L 41.636719 39.625 L 31.921875 36.773438 L 22.207031 39.625 L 24.6875 40.316406 L 29.019531 39.207031 L 25.296875 40.484375 L 25.296875 41.777344 C 25.257812 41.820312 25.230469 41.878906 25.230469 41.945312 C 25.230469 41.992188 25.242188 42.035156 25.265625 42.070312 C 25.1875 42.195312 25.136719 42.402344 25.136719 42.636719 C 25.136719 42.835938 25.21875 43.015625 25.296875 43.144531 C 25.257812 43.167969 25.230469 43.203125 25.230469 43.242188 C 25.230469 43.292969 25.273438 43.335938 25.335938 43.359375 C 25.175781 43.761719 24.800781 44.542969 24.171875 45.007812 L 24.910156 44.601562 L 24.226562 45.511719 L 25.023438 44.78125 L 24.6875 45.570312 L 25.191406 44.839844 L 24.988281 45.664062 L 25.324219 44.769531 L 25.324219 45.855469 L 25.445312 44.851562 L 25.5625 45.855469 L 25.5625 44.769531 L 25.898438 45.664062 L 25.695312 44.839844 L 26.199219 45.570312 L 25.863281 44.78125 L 26.660156 45.511719 L 25.976562 44.601562 L 26.714844 45.007812 C 26.085938 44.542969 25.710938 43.761719 25.550781 43.359375 " fill-opacity="1" fill-rule="nonzero"/></g></svg>