<svg xmlns="http://www.w3.org/2000/svg" xmlns:xlink="http://www.w3.org/1999/xlink" width="500" zoomAndPan="magnify" viewBox="0 0 375 374.999991" height="500" preserveAspectRatio="xMidYMid meet" version="1.0"><defs><clipPath id="65e27b1fab"><path d="M 37.5 51.683594 L 337.5 51.683594 L 337.5 323.183594 L 37.5 323.183594 Z M 37.5 51.683594 " clip-rule="nonzero"/></clipPath></defs><g clip-path="url(#65e27b1fab)"><path fill="#332c54" d="M 292.398438 141.671875 L 279.742188 141.671875 C 231.382812 141.671875 204.230469 119.816406 180.28125 100.539062 C 161.078125 85.082031 134.664062 71.742188 109.71875 71.742188 L 83.328125 71.742188 C 69.910156 71.742188 58.34375 82.023438 57.683594 95.417969 C 57.640625 96.257812 57.644531 97.101562 57.6875 97.941406 C 57.730469 98.78125 57.816406 99.621094 57.945312 100.453125 C 58.074219 101.285156 58.246094 102.109375 58.457031 102.925781 C 58.667969 103.742188 58.921875 104.542969 59.214844 105.332031 C 59.507812 106.125 59.84375 106.898438 60.214844 107.652344 C 60.585938 108.410156 60.996094 109.144531 61.441406 109.859375 C 61.886719 110.574219 62.367188 111.265625 62.886719 111.933594 C 63.402344 112.597656 63.949219 113.238281 64.53125 113.847656 C 65.113281 114.457031 65.722656 115.039062 66.363281 115.585938 C 67 116.136719 67.667969 116.652344 68.359375 117.132812 C 69.050781 117.613281 69.765625 118.058594 70.503906 118.46875 C 71.238281 118.878906 71.996094 119.25 72.769531 119.582031 C 73.542969 119.914062 74.332031 120.207031 75.136719 120.460938 C 75.941406 120.714844 76.757812 120.925781 77.582031 121.09375 C 78.410156 121.265625 79.242188 121.394531 80.078125 121.480469 C 80.917969 121.566406 81.757812 121.609375 82.601562 121.609375 L 125.4375 121.609375 C 193.234375 121.609375 233.710938 152.613281 233.710938 204.542969 L 233.644531 204.542969 C 233.6875 204.542969 233.710938 204.566406 233.710938 204.613281 L 233.710938 276.703125 C 233.710938 278.253906 233.632812 279.800781 233.476562 281.339844 C 233.320312 282.882812 233.085938 284.414062 232.777344 285.933594 C 232.46875 287.449219 232.082031 288.949219 231.625 290.429688 C 231.164062 291.910156 230.632812 293.363281 230.03125 294.792969 C 229.425781 296.21875 228.75 297.613281 228.007812 298.972656 C 227.261719 300.332031 226.453125 301.652344 225.578125 302.929688 C 224.703125 304.207031 223.765625 305.441406 222.765625 306.625 C 221.769531 307.8125 220.710938 308.945312 219.601562 310.023438 C 218.488281 311.105469 217.324219 312.125 216.109375 313.089844 C 214.898438 314.054688 213.636719 314.953125 212.332031 315.792969 C 211.027344 316.628906 209.6875 317.402344 208.304688 318.105469 C 206.925781 318.808594 205.511719 319.441406 204.066406 320.003906 C 202.621094 320.570312 201.152344 321.058594 199.660156 321.472656 C 198.164062 321.890625 196.65625 322.230469 195.128906 322.496094 C 193.601562 322.761719 192.0625 322.949219 190.515625 323.0625 C 188.96875 323.171875 187.421875 323.207031 185.871094 323.164062 C 160.554688 322.453125 140.707031 300.976562 140.707031 275.644531 L 140.707031 163.023438 C 140.707031 162.363281 140.769531 161.710938 140.898438 161.066406 C 141.027344 160.421875 141.21875 159.792969 141.46875 159.183594 C 141.722656 158.574219 142.03125 158 142.398438 157.449219 C 142.765625 156.902344 143.179688 156.394531 143.644531 155.929688 C 144.113281 155.464844 144.617188 155.050781 145.167969 154.683594 C 145.714844 154.316406 146.292969 154.007812 146.902344 153.757812 C 147.507812 153.503906 148.136719 153.3125 148.785156 153.1875 C 149.429688 153.058594 150.082031 152.992188 150.742188 152.992188 C 151.398438 152.992188 152.050781 153.058594 152.699219 153.1875 C 153.34375 153.3125 153.972656 153.503906 154.582031 153.757812 C 155.1875 154.007812 155.769531 154.316406 156.316406 154.683594 C 156.863281 155.050781 157.371094 155.464844 157.835938 155.929688 C 158.300781 156.394531 158.71875 156.902344 159.082031 157.449219 C 159.449219 158 159.757812 158.574219 160.011719 159.183594 C 160.261719 159.792969 160.453125 160.421875 160.582031 161.066406 C 160.710938 161.710938 160.773438 162.363281 160.773438 163.023438 L 160.773438 275.882812 C 160.773438 291.597656 173.65625 304.289062 189.328125 303.042969 C 190.148438 302.976562 190.960938 302.871094 191.769531 302.730469 C 192.578125 302.585938 193.378906 302.40625 194.171875 302.191406 C 194.964844 301.972656 195.742188 301.71875 196.511719 301.429688 C 197.28125 301.140625 198.035156 300.816406 198.773438 300.457031 C 199.511719 300.097656 200.230469 299.703125 200.933594 299.277344 C 201.632812 298.851562 202.3125 298.390625 202.972656 297.902344 C 203.632812 297.414062 204.265625 296.894531 204.878906 296.34375 C 205.488281 295.796875 206.070312 295.21875 206.628906 294.617188 C 207.1875 294.011719 207.714844 293.382812 208.210938 292.730469 C 208.710938 292.078125 209.175781 291.40625 209.613281 290.710938 C 210.046875 290.015625 210.449219 289.300781 210.820312 288.566406 C 211.1875 287.832031 211.523438 287.085938 211.824219 286.320312 C 212.121094 285.554688 212.386719 284.777344 212.613281 283.988281 C 212.839844 283.199219 213.03125 282.402344 213.183594 281.597656 C 213.335938 280.789062 213.449219 279.976562 213.527344 279.160156 C 213.605469 278.34375 213.644531 277.523438 213.644531 276.703125 L 213.644531 204.613281 C 213.648438 204.566406 213.671875 204.542969 213.71875 204.542969 L 213.644531 204.542969 C 213.644531 149.835938 158.375 141.671875 125.4375 141.671875 L 83.558594 141.671875 C 59.0625 141.671875 38.335938 122.507812 37.585938 98.039062 C 37.542969 96.539062 37.574219 95.039062 37.679688 93.539062 C 37.785156 92.039062 37.96875 90.550781 38.222656 89.070312 C 38.476562 87.589844 38.804688 86.128906 39.207031 84.679688 C 39.609375 83.234375 40.082031 81.808594 40.625 80.410156 C 41.171875 79.007812 41.785156 77.640625 42.464844 76.300781 C 43.148438 74.960938 43.894531 73.660156 44.703125 72.394531 C 45.515625 71.132812 46.390625 69.910156 47.324219 68.734375 C 48.257812 67.558594 49.246094 66.429688 50.292969 65.351562 C 51.339844 64.273438 52.4375 63.25 53.585938 62.285156 C 54.734375 61.316406 55.929688 60.40625 57.171875 59.558594 C 58.410156 58.710938 59.691406 57.925781 61.007812 57.203125 C 62.328125 56.484375 63.679688 55.832031 65.0625 55.246094 C 66.445312 54.660156 67.855469 54.144531 69.292969 53.699219 C 70.726562 53.253906 72.179688 52.882812 73.652344 52.585938 C 75.125 52.285156 76.609375 52.058594 78.105469 51.910156 C 79.601562 51.757812 81.097656 51.683594 82.601562 51.683594 L 109.722656 51.683594 C 141.726562 51.683594 172.570312 68.578125 192.875 84.914062 C 215.3125 102.957031 238.457031 121.609375 279.75 121.609375 L 291.683594 121.609375 C 305.101562 121.609375 316.660156 111.324219 317.320312 97.929688 C 317.363281 97.089844 317.363281 96.246094 317.320312 95.40625 C 317.273438 94.5625 317.1875 93.726562 317.058594 92.894531 C 316.929688 92.0625 316.761719 91.238281 316.546875 90.421875 C 316.335938 89.605469 316.082031 88.804688 315.789062 88.011719 C 315.496094 87.222656 315.164062 86.449219 314.792969 85.695312 C 314.417969 84.9375 314.011719 84.203125 313.5625 83.488281 C 313.117188 82.773438 312.636719 82.082031 312.121094 81.414062 C 311.605469 80.75 311.054688 80.113281 310.472656 79.5 C 309.894531 78.890625 309.285156 78.308594 308.644531 77.761719 C 308.003906 77.210938 307.339844 76.699219 306.644531 76.214844 C 305.953125 75.734375 305.238281 75.289062 304.503906 74.878906 C 303.765625 74.472656 303.011719 74.101562 302.234375 73.769531 C 301.460938 73.433594 300.671875 73.140625 299.867188 72.890625 C 299.0625 72.636719 298.25 72.425781 297.421875 72.253906 C 296.597656 72.085938 295.765625 71.957031 294.925781 71.871094 C 294.085938 71.785156 293.246094 71.742188 292.402344 71.742188 L 194.15625 71.742188 C 193.496094 71.742188 192.84375 71.675781 192.199219 71.546875 C 191.554688 71.417969 190.925781 71.230469 190.316406 70.976562 C 189.707031 70.726562 189.128906 70.417969 188.582031 70.050781 C 188.035156 69.683594 187.527344 69.269531 187.0625 68.804688 C 186.597656 68.335938 186.179688 67.832031 185.8125 67.28125 C 185.449219 66.734375 185.136719 66.15625 184.886719 65.550781 C 184.632812 64.941406 184.445312 64.3125 184.316406 63.667969 C 184.1875 63.023438 184.121094 62.371094 184.121094 61.710938 C 184.121094 61.050781 184.1875 60.402344 184.316406 59.753906 C 184.445312 59.109375 184.632812 58.480469 184.886719 57.875 C 185.136719 57.265625 185.449219 56.6875 185.8125 56.140625 C 186.179688 55.589844 186.597656 55.085938 187.0625 54.621094 C 187.527344 54.152344 188.035156 53.738281 188.582031 53.371094 C 189.128906 53.007812 189.707031 52.695312 190.316406 52.445312 C 190.925781 52.191406 191.554688 52.003906 192.199219 51.875 C 192.84375 51.746094 193.496094 51.683594 194.15625 51.683594 L 291.441406 51.683594 C 315.9375 51.683594 336.664062 70.84375 337.394531 95.3125 C 337.441406 96.8125 337.410156 98.3125 337.300781 99.8125 C 337.195312 101.308594 337.015625 102.796875 336.761719 104.277344 C 336.503906 105.757812 336.175781 107.222656 335.773438 108.667969 C 335.371094 110.113281 334.898438 111.539062 334.355469 112.9375 C 333.8125 114.335938 333.199219 115.707031 332.519531 117.046875 C 331.835938 118.382812 331.089844 119.683594 330.28125 120.949219 C 329.46875 122.210938 328.597656 123.433594 327.664062 124.609375 C 326.730469 125.785156 325.738281 126.914062 324.691406 127.992188 C 323.648438 129.070312 322.550781 130.09375 321.402344 131.058594 C 320.253906 132.027344 319.058594 132.9375 317.820312 133.785156 C 316.578125 134.632812 315.300781 135.417969 313.984375 136.140625 C 312.664062 136.859375 311.316406 137.515625 309.929688 138.101562 C 308.546875 138.6875 307.140625 139.203125 305.703125 139.644531 C 304.269531 140.089844 302.816406 140.464844 301.34375 140.761719 C 299.871094 141.0625 298.386719 141.289062 296.894531 141.441406 C 295.398438 141.589844 293.898438 141.667969 292.398438 141.671875 Z M 292.398438 141.671875 " fill-opacity="1" fill-rule="nonzero"/></g></svg>