<svg
    xmlns="http://www.w3.org/2000/svg"
    xmlns:xlink="http://www.w3.org/1999/xlink"
    width="500"
    zoomAndPan="magnify"
    viewBox="0 0 375 374.999991"
    height="500"
    preserveAspectRatio="xMidYMid meet"
    version="1.0"
><defs><g /><clipPath id="a58dbf0d75"><path
                d="M 21.851562 150.078125 L 89.351562 150.078125 L 89.351562 211.578125 L 21.851562 211.578125 Z M 21.851562 150.078125 "
                clip-rule="nonzero"
            /></clipPath></defs><g clip-path="url(#a58dbf0d75)"><path
            fill="#332c54"
            d="M 79.207031 170.460938 L 76.359375 170.460938 C 65.476562 170.460938 59.367188 165.511719 53.976562 161.144531 C 49.65625 157.644531 43.714844 154.621094 38.101562 154.621094 L 32.164062 154.621094 C 29.144531 154.621094 26.542969 156.949219 26.394531 159.984375 C 26.375 160.367188 26.394531 160.746094 26.453125 161.125 C 26.511719 161.503906 26.605469 161.871094 26.738281 162.230469 C 26.871094 162.589844 27.035156 162.929688 27.238281 163.253906 C 27.441406 163.582031 27.671875 163.882812 27.933594 164.160156 C 28.195312 164.4375 28.484375 164.683594 28.792969 164.902344 C 29.105469 165.121094 29.4375 165.308594 29.789062 165.457031 C 30.136719 165.609375 30.496094 165.722656 30.871094 165.800781 C 31.242188 165.878906 31.621094 165.917969 32 165.917969 L 41.636719 165.917969 C 56.894531 165.917969 66 172.941406 66 184.703125 L 65.984375 184.703125 C 65.996094 184.703125 66 184.707031 66 184.71875 L 66 201.050781 C 66 201.753906 65.929688 202.449219 65.789062 203.140625 C 65.652344 203.828125 65.445312 204.5 65.171875 205.144531 C 64.898438 205.792969 64.566406 206.410156 64.171875 206.988281 C 63.777344 207.570312 63.328125 208.105469 62.824219 208.597656 C 62.324219 209.085938 61.777344 209.523438 61.191406 209.902344 C 60.601562 210.285156 59.980469 210.601562 59.332031 210.859375 C 58.679688 211.113281 58.007812 211.300781 57.320312 211.421875 C 56.628906 211.542969 55.9375 211.59375 55.238281 211.574219 C 49.539062 211.410156 45.074219 206.546875 45.074219 200.808594 L 45.074219 175.296875 C 45.074219 174.996094 45.132812 174.707031 45.246094 174.429688 C 45.359375 174.148438 45.523438 173.90625 45.734375 173.691406 C 45.945312 173.480469 46.191406 173.3125 46.46875 173.199219 C 46.746094 173.082031 47.03125 173.027344 47.332031 173.027344 C 47.632812 173.027344 47.917969 173.082031 48.195312 173.199219 C 48.472656 173.3125 48.714844 173.480469 48.929688 173.691406 C 49.140625 173.90625 49.304688 174.148438 49.417969 174.429688 C 49.53125 174.707031 49.589844 174.996094 49.589844 175.296875 L 49.589844 200.863281 C 49.589844 204.421875 52.488281 207.296875 56.015625 207.015625 C 56.382812 206.984375 56.746094 206.921875 57.105469 206.820312 C 57.460938 206.722656 57.804688 206.59375 58.140625 206.429688 C 58.472656 206.265625 58.789062 206.074219 59.085938 205.851562 C 59.382812 205.628906 59.65625 205.378906 59.90625 205.105469 C 60.160156 204.832031 60.382812 204.539062 60.578125 204.222656 C 60.773438 203.90625 60.941406 203.574219 61.074219 203.226562 C 61.210938 202.878906 61.3125 202.523438 61.382812 202.15625 C 61.449219 201.792969 61.484375 201.421875 61.484375 201.050781 L 61.484375 184.71875 C 61.488281 184.707031 61.492188 184.703125 61.503906 184.703125 L 61.484375 184.703125 C 61.484375 172.3125 49.050781 170.460938 41.636719 170.460938 L 32.214844 170.460938 C 26.703125 170.460938 22.039062 166.121094 21.871094 160.578125 C 21.851562 159.894531 21.898438 159.21875 22.011719 158.546875 C 22.128906 157.875 22.308594 157.21875 22.554688 156.585938 C 22.800781 155.949219 23.105469 155.34375 23.472656 154.769531 C 23.839844 154.195312 24.257812 153.664062 24.730469 153.175781 C 25.203125 152.683594 25.71875 152.246094 26.277344 151.863281 C 26.835938 151.476562 27.429688 151.148438 28.054688 150.882812 C 28.675781 150.617188 29.320312 150.417969 29.984375 150.28125 C 30.652344 150.144531 31.320312 150.078125 32 150.078125 L 38.101562 150.078125 C 45.304688 150.078125 52.242188 153.90625 56.8125 157.605469 C 61.859375 161.691406 67.070312 165.917969 76.359375 165.917969 L 79.046875 165.917969 C 82.066406 165.917969 84.664062 163.585938 84.816406 160.554688 C 84.832031 160.171875 84.8125 159.789062 84.753906 159.414062 C 84.699219 159.035156 84.601562 158.664062 84.46875 158.308594 C 84.335938 157.949219 84.171875 157.605469 83.96875 157.28125 C 83.769531 156.957031 83.535156 156.65625 83.273438 156.378906 C 83.011719 156.101562 82.722656 155.851562 82.414062 155.632812 C 82.101562 155.417969 81.769531 155.230469 81.421875 155.082031 C 81.070312 154.929688 80.710938 154.816406 80.335938 154.738281 C 79.964844 154.660156 79.589844 154.621094 79.207031 154.621094 L 57.101562 154.621094 C 56.800781 154.621094 56.511719 154.5625 56.238281 154.449219 C 55.960938 154.332031 55.714844 154.167969 55.503906 153.957031 C 55.292969 153.742188 55.128906 153.496094 55.015625 153.21875 C 54.898438 152.941406 54.84375 152.648438 54.84375 152.347656 C 54.84375 152.046875 54.898438 151.757812 55.015625 151.480469 C 55.128906 151.203125 55.292969 150.957031 55.503906 150.742188 C 55.714844 150.53125 55.960938 150.367188 56.238281 150.25 C 56.511719 150.136719 56.800781 150.078125 57.101562 150.078125 L 78.992188 150.078125 C 84.503906 150.078125 89.167969 154.417969 89.332031 159.960938 C 89.351562 160.640625 89.304688 161.320312 89.1875 161.992188 C 89.074219 162.664062 88.894531 163.316406 88.648438 163.953125 C 88.402344 164.589844 88.097656 165.195312 87.730469 165.765625 C 87.363281 166.339844 86.945312 166.875 86.472656 167.363281 C 86 167.851562 85.484375 168.289062 84.925781 168.675781 C 84.367188 169.0625 83.777344 169.386719 83.152344 169.652344 C 82.527344 169.917969 81.882812 170.121094 81.21875 170.257812 C 80.554688 170.390625 79.882812 170.460938 79.207031 170.460938 Z M 79.207031 170.460938 "
            fill-opacity="1"
            fill-rule="nonzero"
        /></g><g fill="#332c54" fill-opacity="1"><g
            transform="translate(83.752456, 204.211583)"
        ><g><path
                    d="M 20.65625 -29.4375 L 24.703125 -29.4375 L 24.703125 -11.34375 C 24.703125 -7.53125 23.75 -4.671875 21.84375 -2.765625 C 20.300781 -1.203125 18.128906 -0.265625 15.328125 0.046875 L 15.328125 -3.703125 C 16.898438 -3.972656 18.101562 -4.601562 18.9375 -5.59375 C 20.082031 -6.9375 20.65625 -9.003906 20.65625 -11.796875 Z M 2.09375 -29.4375 L 6.125 -29.4375 L 6.125 -11.796875 C 6.125 -9.085938 6.6875 -7.019531 7.8125 -5.59375 C 8.675781 -4.632812 9.835938 -4.015625 11.296875 -3.734375 L 11.296875 0 C 8.578125 -0.332031 6.460938 -1.253906 4.953125 -2.765625 C 3.046875 -4.734375 2.09375 -7.59375 2.09375 -11.34375 Z M 2.09375 -29.4375 "
                /></g></g></g><g fill="#332c54" fill-opacity="1"><g
            transform="translate(121.006451, 204.211583)"
        ><g><path
                    d="M 21.921875 -13.734375 L 25.953125 -13.734375 L 25.953125 -0.078125 L 16.46875 -0.046875 C 12.070312 -0.046875 8.554688 -1.359375 5.921875 -3.984375 C 3.597656 -6.398438 2.320312 -9.632812 2.09375 -13.6875 L 6.34375 -13.6875 C 6.507812 -11.113281 7.515625 -8.789062 9.359375 -6.71875 C 10.316406 -5.738281 11.351562 -5.023438 12.46875 -4.578125 C 13.0625 -4.378906 13.710938 -4.21875 14.421875 -4.09375 C 15.140625 -3.96875 15.921875 -3.90625 16.765625 -3.90625 L 21.921875 -3.953125 Z M 16.5 -29.5625 L 25.953125 -29.53125 L 25.953125 -25.625 L 16.84375 -25.703125 C 16.0625 -25.703125 15.335938 -25.644531 14.671875 -25.53125 C 14.015625 -25.425781 13.410156 -25.242188 12.859375 -24.984375 C 12.316406 -24.765625 11.78125 -24.492188 11.25 -24.171875 C 10.71875 -23.847656 10.203125 -23.460938 9.703125 -23.015625 C 8.191406 -21.335938 7.179688 -19.570312 6.671875 -17.71875 L 2.265625 -17.71875 C 2.742188 -20.914062 3.960938 -23.519531 5.921875 -25.53125 C 8.578125 -28.21875 12.101562 -29.5625 16.5 -29.5625 Z M 16.5 -29.5625 "
                /></g></g></g><g fill="#332c54" fill-opacity="1"><g
            transform="translate(159.562441, 204.211583)"
        ><g><path
                    d="M 5.96875 0 L 2.09375 0 L 2.09375 -29.53125 L 7.46875 -29.53125 L 16.546875 -12.390625 L 16.546875 -4.75 L 5.96875 -24.703125 Z M 24.4375 0 L 20.578125 0 L 20.578125 -29.53125 L 24.4375 -29.53125 Z M 24.4375 0 "
                /></g></g></g><g fill="#332c54" fill-opacity="1"><g
            transform="translate(196.564438, 204.211583)"
        ><g><path
                    d="M 18.5625 -29.359375 C 22.144531 -29.023438 25.070312 -27.707031 27.34375 -25.40625 C 30 -22.78125 31.328125 -19.210938 31.328125 -14.703125 C 31.328125 -10.222656 30 -6.648438 27.34375 -3.984375 C 25.070312 -1.722656 22.144531 -0.421875 18.5625 -0.078125 L 18.5625 -3.703125 C 21.25 -4.117188 23.265625 -5.109375 24.609375 -6.671875 C 26.429688 -8.742188 27.34375 -11.421875 27.34375 -14.703125 C 27.34375 -18.117188 26.429688 -20.832031 24.609375 -22.84375 C 23.210938 -24.46875 21.195312 -25.460938 18.5625 -25.828125 Z M 14.53125 -29.3125 L 14.53125 -25.78125 C 12.15625 -25.363281 10.28125 -24.382812 8.90625 -22.84375 C 7.082031 -20.769531 6.171875 -18.054688 6.171875 -14.703125 C 6.171875 -11.484375 7.082031 -8.804688 8.90625 -6.671875 C 10.21875 -5.191406 12.09375 -4.210938 14.53125 -3.734375 L 14.53125 -0.125 C 11.144531 -0.488281 8.332031 -1.773438 6.09375 -3.984375 C 3.425781 -6.703125 2.09375 -10.273438 2.09375 -14.703125 C 2.09375 -19.179688 3.425781 -22.75 6.09375 -25.40625 C 8.332031 -27.644531 11.144531 -28.945312 14.53125 -29.3125 Z M 14.53125 -29.3125 "
                /></g></g></g><g fill="#332c54" fill-opacity="1"><g
            transform="translate(240.496427, 204.211583)"
        ><g><path
                    d="M 11.59375 -29.4375 C 16.019531 -29.4375 19.535156 -28.09375 22.140625 -25.40625 C 24.710938 -22.832031 26 -19.25 26 -14.65625 C 26 -10.09375 24.710938 -6.507812 22.140625 -3.90625 C 19.554688 -1.269531 16.039062 0.046875 11.59375 0.046875 L 2.09375 0 L 2.09375 -21.421875 L 6.171875 -21.421875 L 6.171875 -3.859375 L 11.296875 -3.828125 C 12.160156 -3.828125 12.945312 -3.890625 13.65625 -4.015625 C 14.375 -4.140625 15.03125 -4.300781 15.625 -4.5 C 16.769531 -4.945312 17.789062 -5.660156 18.6875 -6.640625 C 19.195312 -7.191406 19.644531 -7.757812 20.03125 -8.34375 C 20.425781 -8.9375 20.75 -9.539062 21 -10.15625 C 21.53125 -11.394531 21.796875 -12.894531 21.796875 -14.65625 C 21.796875 -17.675781 20.648438 -20.421875 18.359375 -22.890625 C 17.378906 -23.785156 16.328125 -24.472656 15.203125 -24.953125 C 14.671875 -25.203125 14.078125 -25.375 13.421875 -25.46875 C 12.765625 -25.570312 12.03125 -25.625 11.21875 -25.625 L 2.140625 -25.53125 L 2.09375 -29.4375 Z M 11.59375 -29.4375 "
                /></g></g></g><g fill="#332c54" fill-opacity="1"><g
            transform="translate(279.052417, 204.211583)"
        ><g><path
                    d="M 2.09375 -29.53125 L 20.75 -29.53125 L 20.75 -26.171875 L 6.09375 -26.171875 L 6.09375 -17.4375 L 20.75 -17.4375 L 20.75 -14.03125 L 6.09375 -14.0625 L 6.09375 -7.390625 L 2.09375 -7.390625 Z M 2.09375 -3.359375 L 20.75 -3.359375 L 20.75 0 L 2.09375 0 Z M 2.09375 -3.359375 "
                /></g></g></g><g fill="#332c54" fill-opacity="1"><g
            transform="translate(312.400406, 204.211583)"
        ><g><path
                    d="M 2.09375 -29.5625 L 6.265625 -29.5625 L 17.4375 -0.046875 L 13.359375 -0.046875 Z M 24.984375 -29.5625 L 29.140625 -29.5625 L 19.828125 -5.078125 L 17.765625 -10.453125 Z M 24.984375 -29.5625 "
                /></g></g></g></svg>
